<?xml version="1.0" encoding="UTF-8"?>
<svg version="1.1" xmlns="http://www.w3.org/2000/svg" width="96" height="96">
<path d="M0 0 C6.74328153 0.16483577 10.249224 1.13611028 15 6 C15.515625 6.7425 16.03125 7.485 16.5625 8.25 C17.87281123 10.2499811 17.87281123 10.2499811 20.3125 10.3125 C24.58420794 11.4052625 26.62566467 14.41339075 29 18 C32.57020904 26.76324037 31.70438869 37.30403763 28.1875 46.01171875 C25.87234316 50.45874917 23.06025528 53.20857449 19 56 C17.68 56 16.36 56 15 56 C15.43882308 53.65961022 15.86578323 51.38416536 16.65234375 49.1328125 C18.0129809 45.05208867 18.0129809 45.05208867 17.23828125 40.9296875 C16.03342446 38.77225472 16.03342446 38.77225472 14 36 C9.95809952 39.62377284 7.17431242 43.32720955 6.8125 48.875 C6.874375 49.57625 6.93625 50.2775 7 51 C8.65 51.66 10.3 52.32 12 53 C11.67 54.65 11.34 56.3 11 58 C5.71617594 57.58558243 2.68901078 56.88841677 -1 53 C-5.11416519 46.12920561 -6.83014162 40.01712112 -6 32 C-4.54158904 26.97490523 -2.25127836 22.44876615 0.25 17.875 C2.38473314 13.78898735 2.32539551 10.55553711 2 6 C1.01 5.67 0.02 5.34 -1 5 C-0.67 3.35 -0.34 1.7 0 0 Z M8 7 C7.92523438 7.65484375 7.85046875 8.3096875 7.7734375 8.984375 C6.77785222 15.89490813 4.64342737 21.33006162 1.33984375 27.46875 C-0.96148515 31.81645008 -1.25263951 35.11563621 -1 40 C-0.1025173 42.83378132 -0.1025173 42.83378132 1 45 C1.26554687 44.43023437 1.53109375 43.86046875 1.8046875 43.2734375 C3.06304711 40.88008686 4.53699457 38.81138429 6.125 36.625 C8.63425389 32.94029465 9.70220753 30.56434895 9 26 C12.35000511 26.55833418 14.44256301 27.34311416 16.6640625 29.9609375 C19.28281402 33.84391389 21.35186701 37.6075701 23 42 C26.30743588 38.69256412 26.06006854 34.43158278 26.1875 29.9375 C26.01749388 26.36737154 25.57780078 24.15560155 24 21 C23.62875 21.495 23.2575 21.99 22.875 22.5 C20.26211822 24.59030542 18.25915149 24.10598867 15 24 C14.82984375 23.10796875 14.6596875 22.2159375 14.484375 21.296875 C14.24203125 20.12640625 13.9996875 18.9559375 13.75 17.75 C13.51796875 16.58984375 13.2859375 15.4296875 13.046875 14.234375 C11.92923741 10.78137529 10.75220302 9.29729343 8 7 Z M18 16 C19 19 19 19 19 19 Z " fill="#000000" transform="translate(37,11)"/>
<path d="M0 0 C5.52141492 0.65183371 7.61860203 3.08342707 11.0625 7.23828125 C18.28387921 17.53165847 19.43073079 28.80958972 18 41 C16.37451116 49.02226549 12.41379056 54.97072048 7 61 C6.21882813 61.87591797 6.21882813 61.87591797 5.421875 62.76953125 C4.95265625 63.17558594 4.4834375 63.58164063 4 64 C1.8125 63.6875 1.8125 63.6875 0 63 C0.51721385 58.99331674 1.45479903 57.13348533 4.3125 54.3125 C11.4105144 46.4404223 12.84561534 38.20935519 12.375 27.83984375 C11.49073855 18.78537499 8.06415839 13.38357011 1.609375 7.10546875 C-0.3483128 4.54431893 -0.32964638 3.1481229 0 0 Z " fill="#000000" transform="translate(78,16)"/>
<path d="M0 0 C0.32964638 3.1481229 0.3483128 4.54431893 -1.609375 7.10546875 C-2.66898438 8.13607422 -2.66898438 8.13607422 -3.75 9.1875 C-10.74048676 16.74813284 -12.62057417 23.89703916 -12.46875 34.10009766 C-12.01357382 44.10211998 -8.6577448 50.05641297 -1.51171875 56.89453125 C0 59 0 59 -0.26953125 61.76171875 C-0.51058594 62.50035156 -0.75164063 63.23898438 -1 64 C-6.41471511 63.13506739 -8.91108366 59.23603068 -12 55 C-18.53756979 43.81423481 -19.92766768 31.9613039 -17.19921875 19.27734375 C-14.51470748 11.53746417 -9.14906975 0 0 0 Z " fill="#000000" transform="translate(18,16)"/>
<path d="M0 0 C15.84 0 31.68 0 48 0 C48 1.32 48 2.64 48 4 C32.16 4 16.32 4 0 4 C0 2.68 0 1.36 0 0 Z " fill="#000000" transform="translate(24,72)"/>
</svg>
