<?xml version="1.0" encoding="UTF-8"?>
<svg version="1.1" xmlns="http://www.w3.org/2000/svg" width="96" height="96">
<path d="M0 0 C4.16676032 0.24510355 6.47707269 0.59327876 9.8125 3.1875 C12.99112676 7.27430584 13.8323513 10.72167869 14.5 15.8125 C14.7475 17.3903125 14.7475 17.3903125 15 19 C15.66 19.33 16.32 19.66 17 20 C17 16.7 17 13.4 17 10 C21.08042404 12.04021202 22.36257091 13.31667233 24.234375 17.39453125 C26.54352216 25.25270042 26.00743831 33.88512747 22.22265625 41.15625 C20.42798809 43.86258666 18.45922388 45.88233499 16 48 C15.34 47.67 14.68 47.34 14 47 C14.433125 46.22076172 14.433125 46.22076172 14.875 45.42578125 C17.76732832 40.03834532 17.76732832 40.03834532 18 34 C16.68 34.66 15.36 35.32 14 36 C13.87625 35.319375 13.7525 34.63875 13.625 33.9375 C12.90899123 30.5722588 11.97054875 27.29986575 11 24 C10.67386719 24.66386719 10.34773438 25.32773437 10.01171875 26.01171875 C9.57472656 26.89472656 9.13773438 27.77773438 8.6875 28.6875 C8.23503906 29.60402344 7.78257813 30.52054688 7.31640625 31.46484375 C6 34 6 34 4.125 36.75 C2.5456807 39.90863859 2.91969082 41.68705184 4 45 C5.97670607 46.75422772 5.97670607 46.75422772 8 48 C8 48.66 8 49.32 8 50 C5.13990965 49.9158797 3.45351173 49.43181261 1.3671875 47.4453125 C-3.23509228 42.08710271 -4.49528317 38.84303366 -4.50390625 31.703125 C-3.78047944 26.38677913 -1.73198937 21.85738432 0.59765625 17.05249023 C2.8290112 12.27993241 3.31792747 9.29806844 2 4 C1.04415562 1.66411677 1.04415562 1.66411677 0 0 Z " fill="#116000" transform="translate(39,17)"/>
<path d="M0 0 C3.67025167 0.26141394 5.50377921 0.52143831 8.1953125 3.1171875 C17.01853323 15.72689161 19.63563965 26.74923975 18 42 C17.17039241 45.73323417 15.94707758 48.7210258 14 52 C13.51789063 52.82113281 13.03578125 53.64226562 12.5390625 54.48828125 C10.08929131 58.386775 7.94269069 61.50089291 4 64 C1.25 64.1875 1.25 64.1875 -1 64 C-0.4979814 59.65677851 0.81615435 57.75194793 3.875 54.6875 C10.66221337 47.30534306 12 39.94373157 12 30 C11.07787436 20.00070014 7.33757163 12.88945293 0.29296875 5.859375 C-1 4 -1 4 -0.69921875 1.765625 C-0.46847656 1.18296875 -0.23773438 0.6003125 0 0 Z " fill="#116000" transform="translate(78,16)"/>
<path d="M0 0 C1.4540625 0.0309375 1.4540625 0.0309375 2.9375 0.0625 C2.36045504 3.86066158 0.67248023 5.69729912 -1.875 8.5 C-7.21884957 14.99512775 -10.06133752 22.68513396 -10.5 31.125 C-9.30769259 41.8557667 -6.61949556 50.79047857 1.375 58.375 C1.890625 58.931875 2.40625 59.48875 2.9375 60.0625 C2.6875 62.3125 2.6875 62.3125 1.9375 64.0625 C-0.625 64.125 -0.625 64.125 -4.0625 63.0625 C-12.01048384 55.38799517 -16.10633591 45.39630667 -16.35546875 34.51342773 C-16.46539055 20.36786572 -13.68220869 11.7608488 -4.0625 1.0625 C-3.0625 0.0625 -3.0625 0.0625 0 0 Z " fill="#116000" transform="translate(16.0625,15.9375)"/>
<path d="M0 0 C0.93444443 -0.00315216 1.86888885 -0.00630432 2.83164978 -0.009552 C4.35659813 -0.00651566 4.35659813 -0.00651566 5.91235352 -0.00341797 C7.46793724 -0.00485306 7.46793724 -0.00485306 9.0549469 -0.00631714 C11.253266 -0.00699916 13.45158709 -0.00514338 15.64990234 -0.00097656 C19.02323925 0.00436599 22.39644268 -0.00091807 25.76977539 -0.00732422 C27.90063506 -0.00666333 30.03149465 -0.00538196 32.16235352 -0.00341797 C33.17696152 -0.0054422 34.19156952 -0.00746643 35.23692322 -0.009552 C36.17451981 -0.00639984 37.11211639 -0.00324768 38.078125 0 C39.31936378 0.00119339 39.31936378 0.00119339 40.5856781 0.00241089 C42.60375977 0.12939453 42.60375977 0.12939453 44.60375977 1.12939453 C44.27375977 2.77939453 43.94375977 4.42939453 43.60375977 6.12939453 C27.43375977 6.12939453 11.26375977 6.12939453 -5.39624023 6.12939453 C-5.39624023 0.00519321 -5.39624023 0.00519321 0 0 Z " fill="#116000" transform="translate(29.396240234375,67.87060546875)"/>
</svg>
