<?xml version="1.0" encoding="UTF-8"?>
<svg version="1.1" xmlns="http://www.w3.org/2000/svg" width="96" height="96">
<path d="M0 0 C4.98704856 -0.35480978 8.82919691 -0.58540154 13.375 1.6875 C15.94266605 3.94949152 17.99879363 6.22909888 20 9 C20.556875 8.731875 21.11375 8.46375 21.6875 8.1875 C24 8 24 8 26.4375 9.9375 C34.75836512 19.88194856 35.88315333 28.30782506 35 41 C33.1128251 48.61691076 27.25551697 52.82965535 21 57 C18.375 57.1875 18.375 57.1875 16 57 C15 56 15 56 14.75 53.625 C15 51 15 51 16.5 49.6875 C18.62222571 47.29999608 18.46797579 45.0359325 18.37109375 41.94140625 C17.81771456 39.04635934 16.29996485 37.72497364 14 36 C13.71125 36.763125 13.4225 37.52625 13.125 38.3125 C12 41 12 41 10 44 C9.60986284 45.9896995 9.26797351 47.99019869 9 50 C10.65 50.66 12.3 51.32 14 52 C14.042721 53.66611905 14.04063832 55.33382885 14 57 C13 58 13 58 9.9375 58.5 C4.35454155 57.7910529 1.58485823 55.21463062 -2 51 C-6.00001906 44.89330423 -6.18869973 36.98811357 -5 30 C-3.50750083 25.9269952 -1.66836063 22.02818015 0.3293457 18.18017578 C2.64008653 13.84632194 2.64008653 13.84632194 2.3671875 9.09375 C1.03696062 6.89999145 1.03696062 6.89999145 -1 5 C-0.625 2.375 -0.625 2.375 0 0 Z M11 11 C10.68546875 11.7734375 10.3709375 12.546875 10.046875 13.34375 C9.61890625 14.3853125 9.1909375 15.426875 8.75 16.5 C8.29753906 17.60214844 7.84507813 18.70429688 7.37890625 19.83984375 C6.27104628 22.37882028 5.07679793 24.67728957 3.6875 27.0625 C1.187281 31.811912 1.65404137 36.77218073 2 42 C7.96073881 34.91330949 7.96073881 34.91330949 9 26 C10.98 25.67 12.96 25.34 15 25 C14.01 20.38 13.02 15.76 12 11 C11.67 11 11.34 11 11 11 Z M25 22 C24.01 23.485 24.01 23.485 23 25 C19.875 25.6875 19.875 25.6875 17 26 C17.39832031 26.4846875 17.79664062 26.969375 18.20703125 27.46875 C21.90861052 32.15201331 24.17349976 36.3175548 26 42 C28.32867066 40.10100687 28.32867066 40.10100687 28.265625 36.8828125 C28.26046875 35.64273438 28.2553125 34.40265625 28.25 33.125 C28.25515625 31.89007813 28.2603125 30.65515625 28.265625 29.3828125 C28.02183826 26.27811666 27.63964816 24.58960304 26 22 C25.67 22 25.34 22 25 22 Z " fill="#000000" transform="translate(37,8)"/>
<path d="M0 0 C5.36766586 -0.47339301 5.36766586 -0.47339301 8.16015625 1.6171875 C18.57323039 13.97603114 21.27305911 25.09742925 20 41 C18.43114444 49.01439467 14.39457607 54.99211946 9 61 C8.48953125 61.57363281 7.9790625 62.14726563 7.453125 62.73828125 C6 64 6 64 3.3125 64.1875 C2.1678125 64.0946875 2.1678125 64.0946875 1 64 C0.30078125 61.73828125 0.30078125 61.73828125 0 59 C1.29296875 57.04296875 1.29296875 57.04296875 3.1875 55.1875 C10.70213415 47.26788557 12.63849538 38.92434093 12.4140625 28.234375 C11.94855802 20.80639702 8.33773604 14.11332774 3.1875 8.8125 C2.465625 8.214375 1.74375 7.61625 1 7 C0 6 0 6 -0.0625 2.9375 C-0.041875 1.968125 -0.02125 0.99875 0 0 Z " fill="#000000" transform="translate(76,16)"/>
<path d="M0 0 C0.3125 2.6875 0.3125 2.6875 0 6 C-2.1875 8.375 -2.1875 8.375 -5 11 C-11.76013382 20.41041355 -12.89722222 28.65013889 -12 40 C-10.18051539 47.31929035 -5.27407356 53.72592644 0 59 C-0.375 61.625 -0.375 61.625 -1 64 C-3.21484375 64.27734375 -3.21484375 64.27734375 -6 64 C-13.36531725 58.0506122 -17.95507407 50.15212342 -20 41 C-20.85211323 26.90520909 -19.985173 16.14461941 -10.68359375 4.875 C-10.12800781 4.25625 -9.57242187 3.6375 -9 3 C-8.49984375 2.42636719 -7.9996875 1.85273438 -7.484375 1.26171875 C-5.15961479 -0.71432743 -2.9254715 -0.19503143 0 0 Z " fill="#000000" transform="translate(20,16)"/>
<path d="M0 0 C15.84 0 31.68 0 48 0 C48 1.98 48 3.96 48 6 C32.16 6 16.32 6 0 6 C0 4.02 0 2.04 0 0 Z " fill="#000000" transform="translate(24,70)"/>
</svg>
