<?xml version="1.0" encoding="UTF-8"?>
<svg version="1.1" viewBox="0 0 607 761" xmlns="http://www.w3.org/2000/svg">
 <g transform="translate(-38,-52)">
  <path d="m38 59v366h72v-212l50 212h70l50-212v212h72v-366h-105l-52 217-52-217z" fill="#200080"/>
  <path d="m500 52c-96 0-132 63.721-132 118 0 126 200 85.221 200 148 0 23.314-14.472 44-64 44-57.158 0-64-51-64-51h-75c0 54 50 118 140 118 97.941 0 140-63.903 140-118 0-119.85-203-93-203-147 0-32.918 30-44 60-44 50.984 0 60 50 60 50h70c0-54.097-48-118-132-118z" fill="#200080"/>
  <path d="m493 442c-99 0-133 57-133 111 0 117 212 97 212 148 0 24-9.0003 47-75 47-72 0-74-56-74-56h-72c0 60 51 121 147 121 102 0 144-49.577 144-116 0-117-216-93.432-216-146 0-32.045 30-44 69-44 63 0 65 50 65 50h71c0-66-54-115-138-115z" fill="#fc0"/>
  <path d="m38 449v356h160s140-6.2454 140-178-140-178-140-178zm71 70h93s69 0 69 107.85-69 108.15-69 108.15h-93z" fill="#ab0000"/>
  <path d="m353 440c-135 0-177 83-177 184.5s41.953 184.5 177 184.5c134.72 0 177-83 177-184.5s-42.278-184.5-177-184.5zm0 66c81.442 0 107 53 107 118.5s-25.558 126.5-107 126.5-107-61-107-126.5 25.558-118.5 107-118.5z" fill="#800080"/>
  <path d="m258.37 693.27c-19.911 41.533-56.365 41.732-56.365 41.732h-1.6309v53.008l54.531 0.0892c17.71-9.2323 36.551-23.536 51.826-45.502z" fill="#a00"/>
  <path d="m432.14 718.58-64.191 31.678c12.453 19.984 31.689 37.216 57.393 48.541h71.656l0.23828-50.805c-0.0837 7e-5 -0.1544 6e-3 -0.23828 6e-3 -37.223 0-55.657-14.961-64.857-29.42z" fill="#fc0"/>
  <path d="m430.24 451.83c-31.382 11.41-50.672 31.674-60.912 54.967l60.814 26.057c9.4559-18.497 34.368-25.855 64.855-25.855 2.2317 0 4.368 0.0782 6.4492 0.19922l-0.011-55.391z" fill="#fc0"/>
 </g>
</svg>
