<?xml version="1.0" encoding="UTF-8"?>
<svg version="1.1" xmlns="http://www.w3.org/2000/svg" width="440" height="440">
<path d="M0 0 C2.56854436 -0.01141605 5.13707858 -0.02534792 7.70559692 -0.04159546 C13.93752488 -0.07584283 20.1690484 -0.07767851 26.40104596 -0.06716965 C31.47122914 -0.05905872 36.54129359 -0.06200579 41.61147118 -0.07266617 C42.33543446 -0.07416301 43.05939774 -0.07565986 43.80529931 -0.07720206 C45.27644596 -0.08026529 46.74759258 -0.08334199 48.21873917 -0.086432 C61.98960988 -0.11383608 75.76025283 -0.10303977 89.53111824 -0.08006157 C102.10107577 -0.06020651 114.67044409 -0.08606881 127.24031077 -0.13392995 C140.1783362 -0.18281786 153.11608782 -0.20190159 166.05420369 -0.1886245 C173.30546308 -0.1816627 180.55626983 -0.18595251 187.80745888 -0.22112656 C194.62952189 -0.25381126 201.45044702 -0.24404484 208.27248001 -0.20651627 C210.76726385 -0.19917166 213.26213163 -0.20528202 215.75683784 -0.22628784 C230.13567971 -0.33805864 240.79972838 0.21854631 252.7331543 8.80810547 C253.85071342 9.58685374 253.85071342 9.58685374 254.99084949 10.3813343 C263.14322061 16.39572266 271.42952786 28.41142296 273.19952524 38.45426059 C273.37541067 41.31022229 273.40495023 44.12910017 273.37480164 46.99032593 C273.38330715 48.07254476 273.39181267 49.1547636 273.40057594 50.26977694 C273.42274831 53.87322264 273.40943703 57.47562619 273.39599609 61.07910156 C273.40441385 63.67191809 273.41494098 66.2647285 273.42741394 68.85752869 C273.45342746 75.15553975 273.4524344 81.45326463 273.44137575 87.7513089 C273.43279715 92.87351555 273.43366398 97.99563975 273.44117165 103.11784744 C273.44222653 103.8484986 273.44328142 104.57914975 273.44436828 105.33194185 C273.44653934 106.81654276 273.44872612 108.30114364 273.45092843 109.7857445 C273.47033407 123.69002557 273.45838414 137.59414652 273.43614248 151.49841447 C273.41789898 163.40970161 273.4287896 175.32067863 273.46044922 187.23193359 C273.49726925 201.08534184 273.51421303 214.93855651 273.50103694 228.79201376 C273.49969594 230.27158647 273.49838695 231.7511592 273.49711037 233.23073196 C273.49616437 234.32250816 273.49616437 234.32250816 273.49519926 235.43634044 C273.49218061 240.54697887 273.50339423 245.65747043 273.52036095 250.76807785 C273.54289169 257.65806657 273.533594 264.54740866 273.50326729 271.43736458 C273.49695041 273.96081791 273.50077502 276.48432089 273.51567841 279.00773811 C273.64853932 303.49501421 273.64853932 303.49501421 266.7331543 312.80810547 C266.29225307 313.43244162 265.85135183 314.05677776 265.39708996 314.70003319 C259.87342815 321.91833636 252.84771724 327.74553419 244.7331543 331.80810547 C243.78136543 332.30694244 243.78136543 332.30694244 242.81034851 332.81585693 C234.97900019 336.47224851 227.33136791 336.32271728 218.8815918 336.19873047 C217.37131506 336.19125435 215.8610285 336.18556791 214.35073853 336.18157959 C210.40830906 336.1664308 206.46648503 336.12724483 202.52429199 336.08276367 C198.48852728 336.04157616 194.45266312 336.02351887 190.41674805 336.00341797 C182.52194139 335.96073755 174.62762352 335.89262028 166.7331543 335.80810547 C166.74869858 336.62892609 166.76424286 337.4497467 166.78025818 338.29544067 C166.92143431 346.09053164 167.02754998 353.88498932 167.0958395 361.68103218 C167.13213079 365.68765616 167.18122562 369.69321032 167.26123047 373.69921875 C167.3381706 377.57673272 167.37932498 381.4532283 167.397295 385.3314476 C167.41007409 386.79931519 167.43502239 388.26713693 167.47326469 389.73456192 C167.81851044 403.55162781 163.62945605 414.10116274 154.7331543 424.78466797 C147.64634575 431.95452505 136.17985518 440.26110005 125.7264753 440.9380573 C124.56688385 440.94155327 124.56688385 440.94155327 123.38386631 440.94511986 C122.04315818 440.95273167 122.04315818 440.95273167 120.67536503 440.96049726 C119.69231528 440.96099502 118.70926553 440.96149277 117.69642639 440.96200562 C116.65285695 440.96638787 115.60928751 440.97077012 114.53409475 440.97528517 C111.01979836 440.9886927 107.50552705 440.99485651 103.99121094 441.00097656 C101.47824998 441.00887615 98.96529016 441.01714501 96.45233154 441.02575684 C88.89691843 441.04973271 81.34150655 441.06491008 73.7860674 441.0778169 C71.65094191 441.0815297 69.51581708 441.08550288 67.38069224 441.08956957 C54.11466447 441.11481281 40.84863564 441.13686054 27.58258915 441.14929771 C24.50964924 441.15222731 21.43670936 441.15518898 18.36376953 441.15820312 C17.60002576 441.15894918 16.836282 441.15969523 16.04939448 441.16046388 C3.69038959 441.17310453 -8.66847102 441.20630971 -21.02740853 441.24800496 C-33.72438173 441.29048825 -46.42128123 441.31400033 -59.11832529 441.31921828 C-66.24379153 441.32262574 -73.36903253 441.33430158 -80.49442863 441.36732101 C-87.20283208 441.39835733 -93.91077549 441.40370261 -100.6192627 441.39193726 C-103.07661463 441.39171675 -105.53398489 441.40000223 -107.99127388 441.41759109 C-131.77496536 441.57851139 -131.77496536 441.57851139 -141.2668457 435.80810547 C-142.5067018 435.09356233 -142.5067018 435.09356233 -143.77160549 434.36458397 C-154.5586467 427.90800368 -163.26871017 417.80251208 -167.2668457 405.80810547 C-167.36249072 404.3260867 -167.40305363 402.84017064 -167.40944672 401.35508251 C-167.41575466 400.43812672 -167.4220626 399.52117092 -167.42856169 398.57642859 C-167.43042368 397.56750644 -167.43228568 396.55858429 -167.4342041 395.51908875 C-167.43999749 394.44834557 -167.44579087 393.37760239 -167.45175982 392.27441245 C-167.46987099 388.66805347 -167.48070627 385.06171019 -167.49145508 381.45532227 C-167.50262723 378.8766414 -167.51414046 376.29796199 -167.52597046 373.71928406 C-167.56323223 365.2319888 -167.587826 356.74466895 -167.6105957 348.25732422 C-167.6125706 347.53516426 -167.6145455 346.81300429 -167.61658025 346.0689607 C-167.65576193 331.72035723 -167.68945071 317.37174497 -167.71166229 303.02310467 C-167.71663137 299.86802342 -167.72167571 296.71294231 -167.72680664 293.55786133 C-167.72807731 292.77370788 -167.72934798 291.98955443 -167.73065716 291.18163875 C-167.75198736 278.49736566 -167.80095156 265.81335276 -167.86105078 253.12921038 C-167.92229477 240.0954875 -167.95686812 227.06189845 -167.9661355 214.02803355 C-167.97203208 206.71461256 -167.98964364 199.40163161 -168.03752136 192.08835411 C-168.08256997 185.20093407 -168.09164547 178.31426266 -168.07689285 171.42671394 C-168.07722072 168.90568312 -168.08943528 166.38461994 -168.11474228 163.86371613 C-168.28830349 145.60316966 -166.6991923 133.50734136 -153.5090332 119.91748047 C-144.83973724 111.76169681 -133.93729175 104.67176317 -121.77587891 104.69458008 C-121.1219516 104.69443405 -120.46802429 104.69428802 -119.79428101 104.69413757 C-117.63536244 104.69483359 -115.47653042 104.70261139 -113.31762695 104.71044922 C-111.81975858 104.7123145 -110.32188959 104.71373789 -108.82402039 104.71473694 C-104.88339552 104.7185534 -100.94280756 104.72837627 -97.00219727 104.73944092 C-92.98039245 104.74967374 -88.95858166 104.75423857 -84.93676758 104.75927734 C-77.04677669 104.76999931 -69.15681579 104.78706529 -61.2668457 104.80810547 C-61.2846106 104.01678223 -61.30237549 103.22545898 -61.32067871 102.41015625 C-61.48228809 94.88061623 -61.60342605 87.35193969 -61.68134308 79.82110596 C-61.72275174 75.95109918 -61.77872474 72.08254806 -61.87036133 68.21337891 C-62.63108185 35.2333226 -62.63108185 35.2333226 -53.2668457 22.80810547 C-52.34029175 21.55876221 -52.34029175 21.55876221 -51.39501953 20.28417969 C-49.80652522 18.27930319 -48.12536548 16.56337415 -46.2668457 14.80810547 C-45.60168945 14.13521484 -44.9365332 13.46232422 -44.2512207 12.76904297 C-30.66856299 -0.27617145 -17.95327835 -0.07200447 0 0 Z M12.13549805 79.76513672 C11.67272461 80.43931641 11.20995117 81.11349609 10.7331543 81.80810547 C10.30131836 82.38947266 9.86948242 82.97083984 9.42456055 83.56982422 C6.5948984 88.08357594 6.53500509 92.37929581 6.63549805 97.58544922 C6.64254761 98.28085815 6.64959717 98.97626709 6.65686035 99.69274902 C6.67516445 101.39795924 6.70318514 103.10306037 6.7331543 104.80810547 C7.64423384 104.80892262 7.64423384 104.80892262 8.57371902 104.80975628 C23.39915606 104.82476787 38.22432431 104.86739073 53.04957962 104.94019604 C60.21920373 104.97474958 67.3886375 105.00018882 74.55834961 105.00366211 C80.81243596 105.00671551 87.06618248 105.02738915 93.32013774 105.06863004 C96.62722122 105.08983851 99.93372095 105.09999474 103.24088287 105.09425926 C106.94618233 105.08933199 110.65009596 105.11554386 114.35522461 105.14868164 C115.97364258 105.13574318 115.97364258 105.13574318 117.62475586 105.12254333 C132.03892579 105.33727483 144.0138271 112.68885118 153.9206543 122.80810547 C166.02758988 137.99185879 166.91670972 151.42876911 166.74623489 170.46961594 C166.72407216 173.9022925 166.7477213 177.33467837 166.76611328 180.76733398 C166.79404196 187.24109644 166.78191185 193.71411189 166.75468922 200.18785191 C166.72565335 207.56908019 166.74234003 214.94999605 166.76250076 222.33122826 C166.80290043 237.49037462 166.78707352 252.64897846 166.7331543 267.80810547 C169.26484212 267.87442058 171.79475989 267.92250041 174.3269043 267.96044922 C175.38989746 267.99108459 175.38989746 267.99108459 176.47436523 268.02233887 C184.72812041 268.11483785 191.04308752 265.16325533 197.14331055 259.61669922 C202.62631698 253.73565239 206.09789925 248.43770532 206.1342926 240.20027161 C206.14708755 238.88689819 206.15988251 237.57352478 206.17306519 236.22035217 C206.17201677 234.77670261 206.17063225 233.33305326 206.16894531 231.8894043 C206.17792817 230.35958114 206.18813763 228.82976477 206.19947815 227.29995728 C206.22593438 223.15297551 206.2330099 219.00617957 206.23492551 214.85912156 C206.23706127 212.26425841 206.24347236 209.66944216 206.25141716 207.07459068 C206.27916009 198.01039011 206.2914245 188.9463217 206.2890625 179.88208008 C206.28726226 171.45226016 206.31887978 163.02301749 206.36629349 154.59334356 C206.40561998 147.34127862 206.42160994 140.08940152 206.41969627 132.83723086 C206.41893399 128.51244883 206.42733703 124.1881796 206.45923042 119.86350441 C206.48844305 115.79120167 206.4883986 111.7198958 206.46668053 107.6475563 C206.46356333 106.16054121 206.47051035 104.67346221 206.4887619 103.18655586 C206.60874366 92.72687125 205.02476233 84.56760466 197.73795414 76.63648701 C188.96577557 68.11250664 179.66650883 67.21294321 167.85693359 67.25878906 C166.36769597 67.25008043 164.87846729 67.23970935 163.38925171 67.22781372 C159.36627789 67.20116223 155.34368133 67.19986196 151.32063651 67.20494032 C147.95118057 67.20708894 144.58179952 67.19728943 141.21235973 67.18772948 C133.25642433 67.16558272 125.30067782 67.1646391 117.34472656 67.17675781 C109.16306862 67.18882962 100.98209925 67.16422625 92.80055875 67.12161767 C85.75307 67.08627756 78.70579935 67.07439998 71.65822536 67.08089316 C67.4592275 67.08450275 63.26072067 67.07941048 59.06180382 67.05146408 C55.10925154 67.02613911 51.15776458 67.03034966 47.2052269 67.05628586 C45.76379204 67.06098083 44.32228021 67.05568031 42.88093376 67.03903961 C30.58055754 66.90739068 19.91689398 69.62458897 12.13549805 79.76513672 Z M-92.2043457 182.05810547 C-99.96924014 191.03759109 -101.0011055 199.5264284 -100.91381836 211.12084961 C-100.92060597 212.64465882 -100.92951549 214.16845981 -100.94036865 215.69224548 C-100.96303125 219.80390403 -100.95438078 223.91493054 -100.93847322 228.02659917 C-100.92574842 232.34387525 -100.9375723 236.66109991 -100.94540405 240.9783783 C-100.95448059 248.22518558 -100.94256433 255.47173742 -100.91870117 262.71850586 C-100.89148333 271.08025157 -100.90031666 279.44138776 -100.9278332 287.80311877 C-100.95056812 295.0017558 -100.95370331 302.20021001 -100.94063985 309.39887136 C-100.93287066 313.68989034 -100.93173377 317.98062335 -100.9483223 322.27162361 C-100.96283233 326.30618581 -100.95262758 330.33996663 -100.92385101 334.37444496 C-100.91727527 335.84937497 -100.91907741 337.32437145 -100.93016434 338.79927444 C-100.98926579 347.46455475 -100.4371061 353.70658326 -95.2668457 360.80810547 C-94.4315332 362.13841797 -94.4315332 362.13841797 -93.5793457 363.49560547 C-87.5681211 369.50683007 -80.55230377 372.91711074 -72.10243225 372.96873474 C-70.16596832 372.98380318 -70.16596832 372.98380318 -68.19038391 372.99917603 C-66.75631772 373.00520622 -65.32225092 373.01109121 -63.88818359 373.0168457 C-62.38013492 373.02638526 -60.87208843 373.03627647 -59.36404419 373.04649353 C-54.40588986 373.07788234 -49.44771879 373.09815334 -44.48950195 373.11669922 C-43.22263019 373.1216452 -43.22263019 373.1216452 -41.93016505 373.1266911 C-33.95803417 373.1574846 -25.98589943 373.18418207 -18.01372623 373.20110989 C-7.83312374 373.22298276 2.34694907 373.26487586 12.52733988 373.33454746 C19.69355523 373.3819148 26.85962839 373.40606079 34.02599531 373.41330677 C38.30116004 373.41824602 42.57572788 373.43315958 46.85072136 373.47305107 C50.88025129 373.5101544 54.9088494 373.51825068 58.93851852 373.50504494 C60.4090086 373.5050985 61.87954246 373.5152381 63.3498745 373.53679657 C73.78734695 373.6815181 82.6860202 372.179403 90.72859097 365.03568172 C92.27867098 363.38462365 93.50071534 361.70573498 94.7331543 359.80810547 C95.14307617 359.26025391 95.55299805 358.71240234 95.9753418 358.14794922 C98.95691274 353.46996722 98.9362993 348.93116571 98.8347168 343.52294922 C98.82738525 342.78040894 98.82005371 342.03786865 98.8125 341.27282715 C98.79345564 339.4511608 98.7643138 337.62960487 98.7331543 335.80810547 C98.1206142 335.8075607 97.50807411 335.80701593 96.8769722 335.80645466 C81.92634362 335.79144364 66.97602538 335.74882319 52.02557755 335.6760149 C44.79541956 335.64146005 37.56545034 335.61602194 30.33520508 335.61254883 C24.02838231 335.60949561 17.72189656 335.5888244 11.41520381 335.5475809 C8.08008989 335.52637025 4.74586273 335.51621647 1.41062164 335.52195168 C-2.32580669 335.52687831 -6.06086025 335.50066974 -9.79711914 335.4675293 C-10.88541519 335.47615494 -11.97371124 335.48478058 -13.09498596 335.4936676 C-27.58518975 335.27955897 -39.55755375 327.91557475 -49.5168457 317.74560547 C-61.24638553 303.03214585 -61.30107342 289.28015893 -61.17853236 271.04605985 C-61.16272133 267.58268023 -61.18685443 264.11956246 -61.20643616 260.65623474 C-61.23747065 254.12232293 -61.23348377 247.58893933 -61.21636158 241.05499548 C-61.19858826 233.60607401 -61.22069813 226.15742945 -61.24586856 218.70854867 C-61.29669106 203.40828623 -61.29836962 188.1084336 -61.2668457 172.80810547 C-63.63194906 172.73830995 -65.99494929 172.68781186 -68.3605957 172.64794922 C-69.67737305 172.61822021 -70.99415039 172.58849121 -72.35083008 172.55786133 C-80.10036509 173.05307787 -86.52323648 176.91456357 -92.2043457 182.05810547 Z M6.7331543 172.80810547 C6.61695905 182.30096738 6.52828716 191.79358196 6.47409344 201.28700161 C6.44807414 205.69590432 6.41281801 210.10431808 6.35595703 214.51293945 C6.3013612 218.77292197 6.27167617 223.03243621 6.25876808 227.29274178 C6.24957734 228.91258166 6.2316302 230.53239785 6.20450401 232.15203667 C6.06233091 240.99807067 5.95502267 248.55294672 11.7331543 255.80810547 C12.22381882 256.43547104 12.71448334 257.06283661 13.22001648 257.70921326 C18.54398221 263.71813307 25.40200318 267.29235157 33.37973022 268.24234009 C37.56338189 268.38411866 41.717169 268.37224942 45.90112305 268.29638672 C47.43238662 268.2870393 48.96366535 268.27993233 50.49494934 268.27494812 C54.48848131 268.25602939 58.48107653 268.2070643 62.47424316 268.15142822 C66.56367325 268.09990479 70.6532575 268.07736412 74.74291992 268.05224609 C82.7400904 267.99892648 90.73650521 267.91380326 98.7331543 267.80810547 C98.84935852 258.44562882 98.93802589 249.08340305 98.99221516 239.72036076 C99.01823255 235.37198856 99.05348503 231.02411225 99.11035156 226.67602539 C99.16495443 222.47439689 99.19463385 218.27324327 99.20754051 214.07128716 C99.21673002 212.47377491 99.23467472 210.87628664 99.26180458 209.27897835 C99.40672972 200.38709252 99.33003215 193.19725008 93.7331543 185.80810547 C93.1762793 184.92123047 92.6194043 184.03435547 92.0456543 183.12060547 C86.79681228 177.87176345 79.04701776 173.13408199 71.55033875 172.56759644 C70.35342911 172.57203766 69.15651947 172.57647888 67.92333984 172.58105469 C66.92738045 172.58061661 66.92738045 172.58061661 65.91130066 172.58016968 C63.73068886 172.58155587 61.55042468 172.59708308 59.36987305 172.61279297 C57.85244432 172.61652563 56.33501318 172.61937141 54.81758118 172.62136841 C50.8341907 172.62898492 46.85094732 172.64861624 42.86761475 172.67077637 C38.79872629 172.69127761 34.72981395 172.70037926 30.66088867 172.71044922 C22.6849099 172.73186413 14.70905043 172.76597598 6.7331543 172.80810547 Z " fill="#F28B00" transform="translate(167.266845703125,-0.80810546875)"/>
<path d="M0 0 C2.56854436 -0.01141605 5.13707858 -0.02534792 7.70559692 -0.04159546 C13.93752488 -0.07584283 20.1690484 -0.07767851 26.40104596 -0.06716965 C31.47122914 -0.05905872 36.54129359 -0.06200579 41.61147118 -0.07266617 C42.33543446 -0.07416301 43.05939774 -0.07565986 43.80529931 -0.07720206 C45.27644596 -0.08026529 46.74759258 -0.08334199 48.21873917 -0.086432 C61.98960988 -0.11383608 75.76025283 -0.10303977 89.53111824 -0.08006157 C102.10107577 -0.06020651 114.67044409 -0.08606881 127.24031077 -0.13392995 C140.1783362 -0.18281786 153.11608782 -0.20190159 166.05420369 -0.1886245 C173.30546308 -0.1816627 180.55626983 -0.18595251 187.80745888 -0.22112656 C194.62952189 -0.25381126 201.45044702 -0.24404484 208.27248001 -0.20651627 C210.76726385 -0.19917166 213.26213163 -0.20528202 215.75683784 -0.22628784 C230.13567971 -0.33805864 240.79972838 0.21854631 252.7331543 8.80810547 C253.85071342 9.58685374 253.85071342 9.58685374 254.99084949 10.3813343 C263.14322061 16.39572266 271.42952786 28.41142296 273.19952524 38.45426059 C273.37541067 41.31022229 273.40495023 44.12910017 273.37480164 46.99032593 C273.38330715 48.07254476 273.39181267 49.1547636 273.40057594 50.26977694 C273.42274831 53.87322264 273.40943703 57.47562619 273.39599609 61.07910156 C273.40441385 63.67191809 273.41494098 66.2647285 273.42741394 68.85752869 C273.45342746 75.15553975 273.4524344 81.45326463 273.44137575 87.7513089 C273.43279715 92.87351555 273.43366398 97.99563975 273.44117165 103.11784744 C273.44222653 103.8484986 273.44328142 104.57914975 273.44436828 105.33194185 C273.44653934 106.81654276 273.44872612 108.30114364 273.45092843 109.7857445 C273.47033407 123.69002557 273.45838414 137.59414652 273.43614248 151.49841447 C273.41789898 163.40970161 273.4287896 175.32067863 273.46044922 187.23193359 C273.49726925 201.08534184 273.51421303 214.93855651 273.50103694 228.79201376 C273.49969594 230.27158647 273.49838695 231.7511592 273.49711037 233.23073196 C273.49616437 234.32250816 273.49616437 234.32250816 273.49519926 235.43634044 C273.49218061 240.54697887 273.50339423 245.65747043 273.52036095 250.76807785 C273.54289169 257.65806657 273.533594 264.54740866 273.50326729 271.43736458 C273.49695041 273.96081791 273.50077502 276.48432089 273.51567841 279.00773811 C273.64853932 303.49501421 273.64853932 303.49501421 266.7331543 312.80810547 C266.29225307 313.43244162 265.85135183 314.05677776 265.39708996 314.70003319 C259.87342815 321.91833636 252.84771724 327.74553419 244.7331543 331.80810547 C243.78136543 332.30694244 243.78136543 332.30694244 242.81034851 332.81585693 C234.97900019 336.47224851 227.33136791 336.32271728 218.8815918 336.19873047 C217.37131506 336.19125435 215.8610285 336.18556791 214.35073853 336.18157959 C210.40830906 336.1664308 206.46648503 336.12724483 202.52429199 336.08276367 C198.48852728 336.04157616 194.45266312 336.02351887 190.41674805 336.00341797 C182.52194139 335.96073755 174.62762352 335.89262028 166.7331543 335.80810547 C166.7331543 335.14810547 166.7331543 334.48810547 166.7331543 333.80810547 C145.9431543 333.80810547 125.1531543 333.80810547 103.7331543 333.80810547 C103.7331543 334.46810547 103.7331543 335.12810547 103.7331543 335.80810547 C87.51210399 335.925231 71.29119218 336.01323585 55.0698204 336.06716633 C47.53688111 336.09287977 40.00420551 336.12789763 32.47143555 336.18530273 C25.90107797 336.23534943 19.33091149 336.26744627 12.76036859 336.27854794 C9.2855386 336.28503111 5.81125502 336.30012157 2.33660126 336.33675575 C-1.55507668 336.37744879 -5.44623422 336.37804135 -9.33813477 336.37573242 C-10.47318451 336.3937088 -11.60823425 336.41168518 -12.77767944 336.4302063 C-26.79718468 336.34070838 -37.53955785 329.80593735 -47.70825195 320.59716797 C-60.61507115 307.45012033 -62.14754005 294.59534812 -62.05992126 276.89796448 C-62.03544677 274.87996044 -62.00657867 272.86206011 -61.97660327 270.84413075 C-61.93233431 267.35292728 -61.92869265 263.86166485 -61.92042542 260.370224 C-61.89881586 253.78295614 -61.8415775 247.19651811 -61.77097899 240.60961288 C-61.69227231 233.10045699 -61.65413375 225.59125786 -61.61911094 218.08179104 C-61.54627754 202.65675146 -61.42344701 187.23253618 -61.2668457 171.80810547 C-52.54840568 171.78497935 -43.82997614 171.76718901 -35.11151218 171.7562933 C-31.06358828 171.75106505 -27.0156853 171.74396848 -22.96777344 171.73266602 C-19.06448599 171.72183504 -15.16121871 171.71582819 -11.2579174 171.71322823 C-9.76550923 171.71137436 -8.27310222 171.70775447 -6.78070259 171.70237541 C-4.69736431 171.69516216 -2.61411039 171.69411464 -0.53076172 171.69458008 C0.65726547 171.69235947 1.84529266 171.69013885 3.06932068 171.68785095 C5.7331543 171.80810547 5.7331543 171.80810547 6.7331543 172.80810547 C6.83097196 175.06093117 6.85831807 177.31682917 6.85913086 179.57177734 C6.86099899 180.27923096 6.86286713 180.98668457 6.86479187 181.71557617 C6.86880611 183.25812922 6.87087164 184.80068824 6.87125397 186.34324646 C6.87466424 189.62965931 6.89602942 192.9158734 6.91648483 196.2022171 C6.95449409 202.32412644 6.98577937 208.44583042 6.98364258 214.56787109 C6.98285208 218.82277616 7.0063706 223.07696299 7.0455246 227.3316803 C7.05594284 228.94862126 7.05753954 230.56564558 7.04987335 232.18260193 C7.00588913 242.49661684 7.77028327 249.94747932 14.6550293 258.07763672 C15.25831055 258.58681641 15.8615918 259.09599609 16.4831543 259.62060547 C17.07612305 260.14267578 17.6690918 260.66474609 18.2800293 261.20263672 C26.87394113 266.82699621 34.46836124 267.39679022 44.609375 267.35742188 C46.09861262 267.3661305 47.58784131 267.37650158 49.07705688 267.38839722 C53.1000307 267.41504871 57.12262726 267.41634898 61.14567208 267.41127062 C64.51512803 267.40912199 67.88450907 267.41892151 71.25394887 267.42848146 C79.20988426 267.45062822 87.16563077 267.45157184 95.12158203 267.43945312 C103.30323997 267.42738132 111.48420935 267.45198469 119.66574985 267.49459326 C126.71323859 267.52993338 133.76050925 267.54181096 140.80808324 267.53531778 C145.0070811 267.53170819 149.20558792 267.53680046 153.40450478 267.56474686 C157.35705705 267.59007183 161.30854401 267.58586128 165.2610817 267.55992508 C166.70251656 267.55523011 168.14402838 267.56053063 169.58537483 267.57717133 C180.09522656 267.68965656 189.03108212 266.04849513 196.99969959 258.72507668 C202.15903537 253.21809028 205.10043466 247.86382898 205.1342926 240.20027161 C205.14708755 238.88689819 205.15988251 237.57352478 205.17306519 236.22035217 C205.17201677 234.77670261 205.17063225 233.33305326 205.16894531 231.8894043 C205.17792817 230.35958114 205.18813763 228.82976477 205.19947815 227.29995728 C205.22593438 223.15297551 205.2330099 219.00617957 205.23492551 214.85912156 C205.23706127 212.26425841 205.24347236 209.66944216 205.25141716 207.07459068 C205.27916009 198.01039011 205.2914245 188.9463217 205.2890625 179.88208008 C205.28726226 171.45226016 205.31887978 163.02301749 205.36629349 154.59334356 C205.40561998 147.34127862 205.42160994 140.08940152 205.41969627 132.83723086 C205.41893399 128.51244883 205.42733703 124.1881796 205.45923042 119.86350441 C205.48844305 115.79120167 205.4883986 111.7198958 205.46668053 107.6475563 C205.46356333 106.16054121 205.47051035 104.67346221 205.4887619 103.18655586 C205.6066683 92.90779532 204.06956393 84.90581899 197.10978031 76.9531374 C188.52394564 68.90912091 179.18405796 68.21481613 167.85693359 68.25878906 C166.36769597 68.25008043 164.87846729 68.23970935 163.38925171 68.22781372 C159.36627789 68.20116223 155.34368133 68.19986196 151.32063651 68.20494032 C147.95118057 68.20708894 144.58179952 68.19728943 141.21235973 68.18772948 C133.25642433 68.16558272 125.30067782 68.1646391 117.34472656 68.17675781 C109.16306862 68.18882962 100.98209925 68.16422625 92.80055875 68.12161767 C85.75307 68.08627756 78.70579935 68.07439998 71.65822536 68.08089316 C67.4592275 68.08450275 63.26072067 68.07941048 59.06180382 68.05146408 C55.10925154 68.02613911 51.15776458 68.03034966 47.2052269 68.05628586 C45.76379204 68.06098083 44.32228021 68.05568031 42.88093376 68.03903961 C32.54864175 67.92845477 23.69359894 69.51587604 15.73687267 76.58058739 C14.18657626 78.23274385 12.96147566 79.9064518 11.7331543 81.80810547 C11.33483398 82.36755859 10.93651367 82.92701172 10.52612305 83.50341797 C7.07235708 89.14172141 7.1727307 95.18449534 7.0065918 101.61279297 C6.7331543 104.80810547 6.7331543 104.80810547 4.7331543 106.80810547 C1.98703003 107.0486145 1.98703003 107.0486145 -1.55249023 107.03515625 C-2.19651794 107.0354483 -2.84054565 107.03574036 -3.50408936 107.03604126 C-5.63608197 107.0346462 -7.76772652 107.01907721 -9.8996582 107.00341797 C-11.37653411 106.99968845 -12.85341249 106.99684119 -14.33029175 106.99484253 C-18.22001968 106.98720121 -22.10959858 106.96754855 -25.99926758 106.94543457 C-29.96734603 106.92498682 -33.93544852 106.91584311 -37.90356445 106.90576172 C-45.69139286 106.88430303 -53.47909841 106.85016119 -61.2668457 106.80810547 C-61.45375922 98.21856046 -61.59512303 89.62989111 -61.68134308 81.0388031 C-61.72276483 77.04775209 -61.77876447 73.05811088 -61.87036133 69.06787109 C-62.63039026 35.07323242 -62.63039026 35.07323242 -53.2668457 22.80810547 C-52.64914307 21.97649902 -52.03144043 21.14489258 -51.39501953 20.28808594 C-49.80730901 18.28023745 -48.12667233 16.5646084 -46.2668457 14.80810547 C-45.60168945 14.13521484 -44.9365332 13.46232422 -44.2512207 12.76904297 C-30.66856299 -0.27617145 -17.95327835 -0.07200447 0 0 Z " fill="#0097D2" transform="translate(167.266845703125,-0.80810546875)"/>
<path d="M0 0 C21.78 0 43.56 0 66 0 C65.34 0.33 64.68 0.66 64 1 C64 1.66 64 2.32 64 3 C63.47176636 3.22248917 62.94353271 3.44497833 62.39929199 3.67420959 C56.81658281 6.02587382 51.2345318 8.37909526 45.65283203 10.7331543 C43.5797525 11.60723809 41.50651482 12.48094691 39.43310547 13.35424805 C36.42371886 14.62185579 33.41487383 15.89073924 30.40625 17.16015625 C29.4265625 17.57302887 28.446875 17.98590149 27.4375 18.4112854 C22.96488611 20.30140565 18.50242864 22.20846002 14.06640625 24.18310547 C13.32467163 24.51289902 12.58293701 24.84269257 11.81872559 25.18247986 C10.46230841 25.78874976 9.10804652 26.39987562 7.75646973 27.01686096 C4.96598162 28.26619014 3.09981925 29 0 29 C0 19.43 0 9.86 0 0 Z " fill="#0279AA" transform="translate(106,171)"/>
<path d="M0 0 C20.79 0 41.58 0 63 0 C63 9.57 63 19.14 63 29 C59.37884831 28.27576966 57.04185359 27.72249247 53.83081055 26.25341797 C53.04195969 25.89569305 52.25310883 25.53796814 51.44035339 25.16940308 C50.17630424 24.58668137 50.17630424 24.58668137 48.88671875 23.9921875 C47.99950638 23.58847931 47.11229401 23.18477112 46.19819641 22.76882935 C43.35901611 21.47582047 40.52315838 20.17571203 37.6875 18.875 C33.98396118 17.1829463 30.27914945 15.49369094 26.57421875 13.8046875 C25.67669891 13.39490662 24.77917908 12.98512573 23.85446167 12.56292725 C15.94005925 8.95590047 7.9827286 5.45279887 0 2 C0 1.34 0 0.68 0 0 Z " fill="#C86D00" transform="translate(271,333)"/>
</svg>
