<svg xmlns="http://www.w3.org/2000/svg" height="800" width="1200" viewBox="-30 -38.75 260 232.5"><path d="M0 0h137.11c-10.61 2.14-21.17 4.85-31.09 9.29-.04 6.22-.04 12.45.03 18.67.07 13.81.05 27.62.01 41.43-.08 4.3-.09 8.6.01 12.9.08 13.56.1 27.11-.01 40.67-.08 6.51-.14 13.02.05 19.53 6.83-4.11 14.15-7.47 21.87-9.51 5.61-1.59 11.44-1.94 17.17-2.83 7.56-.81 15.04.93 22.44 2.23 10.23 1.84 19.73 6.23 29.3 10.08.26-43.79.03-87.59.11-131.39C186.49 5.15 174.56 2.5 162.88 0H200v155H0z" fill="none"/><path d="M137.11 0h25.77c11.68 2.5 23.61 5.15 34.12 11.07-.08 43.8.15 87.6-.11 131.39-9.57-3.85-19.07-8.24-29.3-10.08-7.4-1.3-14.88-3.04-22.44-2.23-5.73.89-11.56 1.24-17.17 2.83-7.72 2.04-15.04 5.4-21.87 9.51-.19-6.51-.13-13.02-.05-19.53 9.77-4.37 20.11-7.27 30.62-9.24-.03-13.3.01-26.6-.02-39.9-10.66.78-20.88 4.18-30.59 8.47-.1-4.3-.09-8.6-.01-12.9 9.86-3.99 20.02-7.32 30.63-8.57-.08-13.91.04-27.83-.07-41.74-10.65 1.03-20.85 4.52-30.57 8.88-.07-6.22-.07-12.45-.03-18.67 9.92-4.44 20.48-7.15 31.09-9.29zM8 13.39c2.39-1.04 4.72-2.21 7-3.47v7.01c-2.27 1.23-4.58 2.38-6.93 3.45C8 18.05 8 15.72 8 13.39zm79 5c5.74-2.67 11.39-5.54 17-8.48.02 5.9-.04 11.79.03 17.69-5.75 2.67-11.41 5.55-17.03 8.49v-17.7zm-66-.19c2.94-1.88 5.9-3.73 9-5.34v8.98c-2.58 2.18-5.63 3.77-8.92 4.53-.09-2.72-.09-5.45-.08-8.17zm47 5.89c5.27-2.86 10.74-5.32 16-8.18v16.71c-5.4 2.4-10.56 5.31-15.93 7.77-.14-5.43-.05-10.87-.07-16.3zm-17.01-.78c4.94-1.6 9.57-3.98 14.12-6.46 1.71 4.47.59 9.39.89 14.06-4.79 2.8-9.97 4.78-15 7.06 0-4.88.01-9.77-.01-14.66z" fill="#231f20"/><path d="M148.12 17.11c10.18-.74 20.41 1 29.83 4.93-.01 14.01.07 28.02-.05 42.03-5-1.36-9.95-3.04-15.1-3.75-4.9-.55-9.84-.31-14.76-.34.01-14.29-.12-28.58.08-42.87z" fill="#007f00"/><path d="M36 24.07c3.77-2.25 7.99-3.54 11.96-5.39.06 3.68.04 7.36.04 11.05-4.12 1.19-7.8 3.47-11.91 4.65-.12-3.43-.09-6.87-.09-10.31z" fill="#231f20"/><path d="M106.05 27.96c9.72-4.36 19.92-7.85 30.57-8.88.11 13.91-.01 27.83.07 41.74-10.61 1.25-20.77 4.58-30.63 8.57.04-13.81.06-27.62-.01-41.43zM8 32.39c2.39-1.05 4.72-2.22 7.01-3.47-.01 2.57-.01 5.14-.01 7.71-2.43.6-4.69 1.68-6.97 2.67C8 37 8 34.69 8 32.39z" fill="#fe0000"/><path d="M87 37.39c5.74-2.67 11.39-5.54 17-8.48-.02 5.9.04 11.8-.03 17.71-5.72 2.72-11.48 5.41-16.88 8.73-.18-5.99-.06-11.98-.09-17.96z" fill="#231f20"/><path d="M21 37.2c2.94-1.88 5.91-3.73 9.01-5.34-.04 3.23.05 6.46-.06 9.69-3.08 1.41-5.8 3.44-8.83 4.92-.14-3.09-.14-6.18-.12-9.27zm30 5.88c4.92-2.59 9.9-5.08 14.93-7.47.11 5.03.08 10.05.04 15.08-5.04 2.08-10.05 4.2-14.9 6.7-.12-4.77-.06-9.54-.07-14.31zm17.06.37c5.25-2.65 10.08-6.29 15.85-7.84.15 5.33.11 10.68.05 16.01-5.45 2.26-10.42 5.55-15.85 7.82-.17-5.33-.15-10.66-.05-15.99zm-32.02-.07c4.02-1.8 7.88-3.94 11.89-5.77.08 3.67.11 7.34.03 11.01-3.97 1.85-7.83 3.92-11.96 5.4.02-3.55-.04-7.09.04-10.64zM8 50.37c2.42-.6 4.68-1.68 6.97-2.67.03 2.33.03 4.67.03 7-2.28.96-4.53 2-6.91 2.69-.08-2.34-.09-4.68-.09-7.02z" fill="#fe0000"/><path d="M87 56.13c5.39-3.32 11.59-4.94 17-8.22 0 5.9-.01 11.79.01 17.69-5.74 2.67-11.38 5.56-17.01 8.46V56.13z" fill="#231f20"/><path d="M20.97 55.48c2.91-1.75 5.82-3.54 8.95-4.89.09 3.09.09 6.18.08 9.27-2.97 1.52-5.69 3.55-8.89 4.58-.12-2.99-.12-5.97-.14-8.96zm47.07 5.9c5.37-2.43 10.53-5.3 15.89-7.77.13 5.44.05 10.87.07 16.31-5.27 2.85-10.74 5.31-16 8.17.02-5.57-.04-11.14.04-16.71zM51 61.01c5.18-1.64 9.67-4.92 14.91-6.4.13 4.67.12 9.34.05 14.01-5.03 2.11-9.6 5.26-14.87 6.77-.16-4.79-.07-9.59-.09-14.38zm-14.96.37c4.02-1.8 7.88-3.94 11.89-5.77.1 3.79.07 7.59.08 11.38-3.94 1.9-8.06 3.37-11.95 5.38-.07-3.66-.1-7.33-.02-10.99z" fill="#fe0000"/><path d="M7.98 70.09c2.27-1.24 4.58-2.41 6.94-3.48.08 2.36.09 4.72.08 7.08-2.27.97-4.51 2.04-6.91 2.68-.07-2.09-.1-4.19-.11-6.28zm79.03 4.92c5.74-2.53 11.51-5.01 16.99-8.1v16.95c-5.18 3.89-11.4 6.01-17 9.2 0-6.02-.01-12.04.01-18.05zm-65.96-.54c2.87-1.78 5.76-3.54 8.87-4.88.1 3.09.09 6.18.08 9.27-2.99 1.48-5.66 3.63-8.9 4.55-.11-2.98-.16-5.96-.05-8.94z" fill="#231f20"/><path d="M148.05 72.1c10.13-1.01 20.43.11 29.91 3.91-.02 13.84.03 27.68-.03 41.52-9.66-3.03-19.76-4.77-29.91-4.35.03-13.69-.03-27.39.03-41.08z" fill="#fefe00"/><path d="M68 80.38c5.4-2.4 10.56-5.3 15.93-7.77.13 5.43.05 10.87.07 16.3-5.27 2.86-10.74 5.32-16 8.18V80.38zm-17 0c5.04-2.07 9.6-5.25 14.86-6.77.24 4.65.1 9.3.16 13.96-5.04 2.13-9.63 5.34-14.94 6.81-.15-4.67-.06-9.33-.08-14z" fill="#231f20"/><path d="M106.07 82.29c9.71-4.29 19.93-7.69 30.59-8.47.03 13.3-.01 26.6.02 39.9-10.51 1.97-20.85 4.87-30.62 9.24.11-13.56.09-27.11.01-40.67z" fill="#0000fe"/><path d="M36.02 80.32c3.92-1.68 7.82-3.43 11.89-4.69.12 3.45.09 6.9.09 10.36-3.92 1.91-8.06 3.35-11.93 5.39-.09-3.69-.09-7.37-.05-11.06z" fill="#231f20"/><path d="M8 89.07c2.27-1.22 4.57-2.39 6.92-3.46.07 2.45.09 4.91.1 7.37-2.37.94-4.77 1.82-7.02 3.04v-6.95z" fill="#0000fe"/><path d="M87 94.08c5.58-2.93 11.23-5.75 16.93-8.46.14 5.76.04 11.53.07 17.3-5.67 2.75-11.13 6.01-16.9 8.5-.2-5.78-.06-11.56-.1-17.34z" fill="#231f20"/><path d="M20.99 94.13c2.81-2.11 5.95-3.71 8.91-5.61.12 3.11.11 6.22.11 9.34a22.53 22.53 0 01-8.92 4.52c-.1-2.75-.1-5.5-.1-8.25zM68 100.08c5.38-2.63 10.55-5.69 16-8.16 0 5.29 0 10.58.01 15.87-5 3.42-10.48 6.02-15.94 8.6-.13-5.44-.05-10.88-.07-16.31zm-16.96-.71c4.88-2.45 10.03-4.27 14.9-6.74.11 4.76.05 9.52.06 14.29-4.92 2.59-9.9 5.08-14.93 7.47-.1-5.01-.1-10.02-.03-15.02zm-15.04.72c3.88-2 7.67-4.3 11.91-5.48.13 3.67.09 7.34.09 11.02-4.23.92-7.71 3.74-11.91 4.77-.12-3.44-.09-6.88-.09-10.31zM8 107.3c2.27-.96 4.52-2 6.9-2.68.08 2.09.11 4.19.13 6.29-2.28 1.23-4.6 2.4-6.95 3.48C8 112.03 8 109.66 8 107.3z" fill="#0000fe"/><path d="M87 113.38c5.74-2.66 11.39-5.53 17-8.47-.01 5.9 0 11.8 0 17.71-5.85 2.52-11.37 5.69-16.88 8.84-.24-6.02-.07-12.05-.12-18.08z" fill="#231f20"/><path d="M21.01 112.2c2.93-1.88 5.9-3.73 8.99-5.34-.01 3.22-.01 6.44.03 9.66-2.91 1.75-5.82 3.54-8.95 4.89-.1-3.07-.09-6.14-.07-9.21zM68 118.08c5.27-2.85 10.74-5.31 16-8.17-.02 5.57.04 11.14-.03 16.72-5.6 2-10.22 6.05-15.88 7.75-.17-5.43-.06-10.86-.09-16.3zm-17 0c4.92-2.59 9.9-5.08 14.93-7.47.13 5.04.05 10.08.07 15.12-5.26 1.56-9.98 4.37-14.93 6.66-.12-4.77-.06-9.54-.07-14.31zm-15-.07c4.13-1.45 7.98-3.53 11.93-5.4.08 3.67.11 7.34.03 11.01-4.02 1.8-7.88 3.94-11.89 5.77-.1-3.79-.07-7.59-.07-11.38z" fill="#0000fe"/><path d="M8 126.32c2.27-.98 4.51-2.06 6.91-2.7.09 2.34.1 4.67.09 7.01-2.43.57-4.68 1.68-6.96 2.69-.04-2.34-.04-4.67-.04-7zm79 6.08c5.74-2.38 10.93-6.03 16.92-7.78.16 5.67.05 11.33.08 17-5.95 2.34-11.15 6.1-16.92 8.79-.16-6-.05-12.01-.08-18.01zm-66-1.27c3.11-1.6 6.08-3.46 9.02-5.34-.04 3.25.02 6.51-.06 9.76-3.11 1.37-5.79 3.48-8.86 4.92-.13-3.11-.11-6.23-.1-9.34zm47 6.25c5.4-2.41 10.56-5.31 15.93-7.77.14 5.33.04 10.67.08 16-5.4 2.41-10.56 5.32-15.94 7.78-.13-5.34-.05-10.67-.07-16.01zm-17-.29c4.92-2.23 9.44-5.86 14.96-6.33.07 4.38.03 8.77.04 13.16-4.92 2.59-9.9 5.08-14.93 7.47-.13-4.77-.05-9.54-.07-14.3zm-14.97.29c4.03-1.79 7.88-3.94 11.89-5.77.1 3.67.11 7.34.05 11.01-3.98 1.84-7.84 3.93-11.97 5.4.01-3.55-.03-7.1.03-10.64z" fill="#231f20"/></svg>