<?xml version="1.0" encoding="UTF-8" standalone="no"?>
<!-- Created with Inkscape (http://www.inkscape.org/) -->

<svg
   width="1000"
   height="883.04401"
   viewBox="0 0 1000 883.04402"
   id="svg2"
   version="1.1"
   inkscape:version="1.3.2 (091e20e, 2023-11-25, custom)"
   sodipodi:docname="Windows XP (Symbol) (Saturated).svg"
   xml:space="preserve"
   xmlns:inkscape="http://www.inkscape.org/namespaces/inkscape"
   xmlns:sodipodi="http://sodipodi.sourceforge.net/DTD/sodipodi-0.dtd"
   xmlns:xlink="http://www.w3.org/1999/xlink"
   xmlns="http://www.w3.org/2000/svg"
   xmlns:svg="http://www.w3.org/2000/svg"
   xmlns:rdf="http://www.w3.org/1999/02/22-rdf-syntax-ns#"
   xmlns:cc="http://creativecommons.org/ns#"
   xmlns:dc="http://purl.org/dc/elements/1.1/"><defs
     id="defs4"><linearGradient
       gradientUnits="userSpaceOnUse"
       id="XMLID_39_"
       y2="45.238998"
       x2="97.723"
       y1="45.669998"
       x1="99.226997"
       gradientTransform="matrix(5.7728038,0,0,5.7728038,0.00527315,169.32165)"><stop
         id="stop4146"
         offset="0"
         style="stop-color:#98b900;stop-opacity:1;" /><stop
         id="stop4148"
         offset="0.19716978"
         style="stop-color:#98b900;stop-opacity:1;" /><stop
         id="stop4150"
         offset="0.57976365"
         style="stop-color:#538400;stop-opacity:1;" /><stop
         id="stop4152"
         offset="0.68704271"
         style="stop-color:#538400;stop-opacity:1;" /><stop
         id="stop4154"
         offset="1"
         style="stop-color:#538400;stop-opacity:1;" /></linearGradient><linearGradient
       gradientUnits="userSpaceOnUse"
       id="XMLID_40_"
       y2="17.01"
       x2="105.865"
       y1="17.111"
       x1="107.31"
       gradientTransform="matrix(5.7728038,0,0,5.7728038,0.00527315,169.32165)"><stop
         id="stop4161"
         offset="0"
         style="stop-color:#83b641;stop-opacity:1" /><stop
         id="stop4163"
         offset="0.2"
         style="stop-color:#b7ca33;stop-opacity:1" /><stop
         id="stop4165"
         offset="0.525"
         style="stop-color:#b7ca33;stop-opacity:1" /><stop
         id="stop4167"
         offset="1"
         style="stop-color:#8aa742;stop-opacity:1" /></linearGradient><linearGradient
       gradientUnits="userSpaceOnUse"
       id="XMLID_41_"
       y2="21.652"
       x2="171.41499"
       y1="20.577"
       x1="170.769"
       gradientTransform="matrix(5.7728038,0,0,5.7728038,0.00527315,169.32165)"><stop
         id="stop4172"
         offset="0"
         style="stop-color:#83b641;stop-opacity:1" /><stop
         id="stop4174"
         offset="1"
         style="stop-color:#595e48;stop-opacity:1" /></linearGradient><linearGradient
       gradientUnits="userSpaceOnUse"
       id="XMLID_42_"
       y2="21.895"
       x2="172.026"
       y1="21.409"
       x1="172.43401"
       gradientTransform="matrix(5.7728038,0,0,5.7728038,0.00527315,169.32165)"><stop
         id="stop4179"
         offset="0"
         style="stop-color:#8aa742;stop-opacity:1" /><stop
         id="stop4181"
         offset="1"
         style="stop-color:#595e48;stop-opacity:1" /></linearGradient><linearGradient
       gradientUnits="userSpaceOnUse"
       id="XMLID_43_"
       y2="22.834"
       x2="173.04201"
       y1="21.805"
       x1="173.04201"
       gradientTransform="matrix(5.7728038,0,0,5.7728038,0.00527315,169.32165)"><stop
         id="stop4190"
         offset="0"
         style="stop-color:#8aa742;stop-opacity:1" /><stop
         id="stop4192"
         offset="1"
         style="stop-color:#767e47;stop-opacity:1" /></linearGradient><linearGradient
       gradientUnits="userSpaceOnUse"
       id="XMLID_44_"
       y2="77.838997"
       x2="153.91"
       y1="77.938004"
       x1="155.32001"
       gradientTransform="matrix(5.7728038,0,0,5.7728038,0.00527315,169.32165)"><stop
         id="stop4199"
         offset="0"
         style="stop-color:#767e47;stop-opacity:1" /><stop
         id="stop4201"
         offset="1"
         style="stop-color:#8aa742;stop-opacity:1" /></linearGradient><linearGradient
       gradientUnits="userSpaceOnUse"
       id="XMLID_45_"
       y2="79.074997"
       x2="155.071"
       y1="78.063004"
       x1="155.98199"
       gradientTransform="matrix(5.7728038,0,0,5.7728038,0.00527315,169.32165)"><stop
         id="stop4206"
         offset="0"
         style="stop-color:#767e47;stop-opacity:1" /><stop
         id="stop4208"
         offset="1"
         style="stop-color:#595e48;stop-opacity:1" /></linearGradient><linearGradient
       gradientUnits="userSpaceOnUse"
       id="XMLID_46_"
       y2="79.838997"
       x2="154.649"
       y1="79.838997"
       x1="90.361"
       gradientTransform="matrix(5.7728038,0,0,5.7728038,0.00527315,169.32165)"><stop
         id="stop4213"
         offset="0"
         style="stop-color:#567a00;stop-opacity:1;" /><stop
         id="stop4215"
         offset="0.40000001"
         style="stop-color:#91ce24;stop-opacity:1;" /><stop
         id="stop4217"
         offset="1"
         style="stop-color:#567a00;stop-opacity:1;" /></linearGradient><linearGradient
       gradientUnits="userSpaceOnUse"
       id="XMLID_47_"
       y2="73.786003"
       x2="88.950996"
       y1="74.917"
       x1="89.969002"
       gradientTransform="matrix(5.7728038,0,0,5.7728038,0.00527315,169.32165)"><stop
         id="stop4228"
         offset="0"
         style="stop-color:#767e47;stop-opacity:1" /><stop
         id="stop4230"
         offset="0.1"
         style="stop-color:#767e47;stop-opacity:1" /><stop
         id="stop4232"
         offset="0.65"
         style="stop-color:#83b641;stop-opacity:1" /><stop
         id="stop4234"
         offset="1"
         style="stop-color:#8aa742;stop-opacity:1" /></linearGradient><linearGradient
       gradientUnits="userSpaceOnUse"
       id="XMLID_48_"
       y2="74.424004"
       x2="90.676003"
       y1="73.086998"
       x1="89.935997"
       gradientTransform="matrix(5.7728038,0,0,5.7728038,0.00527315,169.32165)"><stop
         id="stop4239"
         offset="0"
         style="stop-color:#8aa742;stop-opacity:1" /><stop
         id="stop4241"
         offset="0.405"
         style="stop-color:#83b641;stop-opacity:1" /><stop
         id="stop4243"
         offset="0.8"
         style="stop-color:#8aa742;stop-opacity:1" /><stop
         id="stop4245"
         offset="1"
         style="stop-color:#8aa742;stop-opacity:1" /></linearGradient><linearGradient
       gradientUnits="userSpaceOnUse"
       id="XMLID_49_"
       y2="49.099998"
       x2="162.08701"
       y1="49.528999"
       x1="163.58501"
       gradientTransform="matrix(5.7728038,0,0,5.7728038,0.00527315,169.32165)"><stop
         id="stop4250"
         offset="0"
         style="stop-color:#595e48;stop-opacity:1" /><stop
         id="stop4252"
         offset="1"
         style="stop-color:#83b641;stop-opacity:1" /></linearGradient><defs
       id="defs4256"><path
         id="XMLID_12_"
         d="m 107.254,17.442 c 14.297,9.621 30.156,17.29 63.152,3.648 L 154.15,77.255 c -27.541,12.922 -49.002,6.278 -63.283,-3.398 l 16.387,-56.415 z"
         inkscape:connector-curvature="0" /></defs><clipPath
       id="clipPath4259"><use
         id="use4261"
         xlink:href="#XMLID_12_"
         height="152.966"
         width="812.04401"
         y="0"
         x="0" /></clipPath><linearGradient
       gradientUnits="userSpaceOnUse"
       id="XMLID_51_"
       y2="40.804001"
       x2="100.46"
       y1="57.84"
       x1="159.869"
       gradientTransform="matrix(5.7728038,0,0,5.7728038,0.00527315,169.32165)"><stop
         id="stop4264"
         offset="0"
         style="stop-color:#629c00;stop-opacity:1;" /><stop
         id="stop1"
         offset="0.1665"
         style="stop-color:#92d400;stop-opacity:1;" /><stop
         id="stop4266"
         offset="0.333"
         style="stop-color:#9fdc30;stop-opacity:1;" /><stop
         id="stop4268"
         offset="0.667"
         style="stop-color:#7bbd08;stop-opacity:1;" /><stop
         id="stop4270"
         offset="1"
         style="stop-color:#446500;stop-opacity:1;" /></linearGradient><linearGradient
       gradientUnits="userSpaceOnUse"
       id="XMLID_52_"
       y2="129.19099"
       x2="63.144001"
       y1="129.19099"
       x1="0.18700001"
       gradientTransform="matrix(5.7728038,0,0,5.7728038,0.00527315,169.32165)"><stop
         id="stop4289"
         offset="0"
         style="stop-color:#76a5d8;stop-opacity:1" /><stop
         id="stop4291"
         offset="0.45"
         style="stop-color:#dae3ec;stop-opacity:1" /><stop
         id="stop4293"
         offset="1"
         style="stop-color:#3f87c7;stop-opacity:1" /></linearGradient><defs
       id="defs4305"><path
         id="XMLID_16_"
         d="M 63.135,134.475 C 48.804,124.827 33.267,117.01 0.193,130.682 L 16.238,74.603 c 33.079,-13.68 49.107,-6.4 63.426,3.303 l -16.529,56.569 z"
         inkscape:connector-curvature="0" /></defs><clipPath
       id="XMLID_53_"><use
         id="use4309"
         xlink:href="#XMLID_16_"
         height="152.966"
         width="812.04401"
         y="0"
         x="0" /></clipPath><linearGradient
       gradientUnits="userSpaceOnUse"
       id="XMLID_55_"
       y2="74.621002"
       x2="16.247"
       y1="74.211998"
       x1="16.247"
       gradientTransform="matrix(5.7728038,0,0,5.7728038,0.00527315,169.32165)"><stop
         id="stop4329"
         offset="0"
         style="stop-color:#76a5d8;stop-opacity:1" /><stop
         id="stop4331"
         offset="1"
         style="stop-color:#2e499e;stop-opacity:1" /></linearGradient><defs
       id="defs4351"><path
         id="XMLID_20_"
         d="M 35.432,7.781 35.25,7.729 c 0.07,-0.238 0.234,-0.323 0.298,-0.35 l 0.027,-0.008 c 10e-4,10e-4 -0.06,0.126 -0.143,0.41 z"
         inkscape:connector-curvature="0" /></defs><clipPath
       id="XMLID_56_"><use
         id="use4355"
         xlink:href="#XMLID_20_"
         height="152.966"
         width="812.04401"
         y="0"
         x="0" /></clipPath><linearGradient
       gradientUnits="userSpaceOnUse"
       id="XMLID_57_"
       y2="62.354"
       x2="82.387001"
       y1="62.354"
       x1="19.111"
       gradientTransform="matrix(5.7728038,0,0,5.7728038,0.00527315,169.32165)"><stop
         id="stop4390"
         offset="0"
         style="stop-color:#f9751b;stop-opacity:1;" /><stop
         id="stop4392"
         offset="0.25"
         style="stop-color:#f9751b;stop-opacity:1;" /><stop
         id="stop4394"
         offset="0.475"
         style="stop-color:#fcc193;stop-opacity:1" /><stop
         id="stop4396"
         offset="0.525"
         style="stop-color:#fcc193;stop-opacity:1" /><stop
         id="stop4398"
         offset="0.75"
         style="stop-color:#f9751b;stop-opacity:1;" /><stop
         id="stop4400"
         offset="1"
         style="stop-color:#f9751b;stop-opacity:1;" /></linearGradient><linearGradient
       gradientUnits="userSpaceOnUse"
       id="XMLID_58_"
       y2="27.458"
       x2="29.653999"
       y1="44.528999"
       x1="89.186996"
       gradientTransform="matrix(5.7728038,0,0,5.7728038,0.00527315,169.32165)"><stop
         id="stop4409"
         offset="0"
         style="stop-color:#9b1e00;stop-opacity:1;" /><stop
         id="stop4411"
         offset="0.40000001"
         style="stop-color:#f65d00;stop-opacity:1;" /><stop
         id="stop4413"
         offset="0.72500002"
         style="stop-color:#ffa75b;stop-opacity:1;" /><stop
         id="stop4415"
         offset="1"
         style="stop-color:#fa5f00;stop-opacity:1;" /></linearGradient><linearGradient
       gradientUnits="userSpaceOnUse"
       id="XMLID_59_"
       y2="145.73599"
       x2="137.342"
       y1="144.478"
       x1="137.679"
       gradientTransform="matrix(5.7728038,0,0,5.7728038,0.00527315,169.32165)"><stop
         id="stop4420"
         offset="0"
         style="stop-color:#d4a52e;stop-opacity:1" /><stop
         id="stop4422"
         offset="1"
         style="stop-color:#a87c3c;stop-opacity:1" /></linearGradient><linearGradient
       gradientUnits="userSpaceOnUse"
       id="XMLID_60_"
       y2="90.400002"
       x2="153.52901"
       y1="89.364998"
       x1="153.52901"
       gradientTransform="matrix(5.7728038,0,0,5.7728038,0.00527315,169.32165)"><stop
         id="stop4429"
         offset="0.006"
         style="stop-color:#c19236;stop-opacity:1" /><stop
         id="stop4431"
         offset="1"
         style="stop-color:#d4a52e;stop-opacity:1" /></linearGradient><linearGradient
       gradientUnits="userSpaceOnUse"
       id="XMLID_61_"
       y2="89.225998"
       x2="151.881"
       y1="88.141998"
       x1="151.23"
       gradientTransform="matrix(5.7728038,0,0,5.7728038,0.00527315,169.32165)"><stop
         id="stop4436"
         offset="0.006"
         style="stop-color:#ffcd02;stop-opacity:1" /><stop
         id="stop4438"
         offset="1"
         style="stop-color:#a87c3c;stop-opacity:1" /></linearGradient><linearGradient
       gradientUnits="userSpaceOnUse"
       id="XMLID_62_"
       y2="89.447998"
       x2="152.528"
       y1="88.973"
       x1="152.927"
       gradientTransform="matrix(5.7728038,0,0,5.7728038,0.00527315,169.32165)"><stop
         id="stop4443"
         offset="0.006"
         style="stop-color:#ffcd02;stop-opacity:1" /><stop
         id="stop4445"
         offset="1"
         style="stop-color:#a87c3c;stop-opacity:1" /></linearGradient><linearGradient
       gradientUnits="userSpaceOnUse"
       id="XMLID_63_"
       y2="143.80499"
       x2="134.95399"
       y1="143.903"
       x1="136.367"
       gradientTransform="matrix(5.7728038,0,0,5.7728038,0.00527315,169.32165)"><stop
         id="stop4452"
         offset="0"
         style="stop-color:#c19236;stop-opacity:1" /><stop
         id="stop4454"
         offset="1"
         style="stop-color:#ffcd02;stop-opacity:1" /></linearGradient><linearGradient
       gradientUnits="userSpaceOnUse"
       id="XMLID_64_"
       y2="111.211"
       x2="78.693001"
       y1="111.635"
       x1="80.170998"
       gradientTransform="matrix(5.7728038,0,0,5.7728038,0.00527315,169.32165)"><stop
         id="stop4463"
         offset="0"
         style="stop-color:#eac600;stop-opacity:1;" /><stop
         id="stop4465"
         offset="0.1"
         style="stop-color:#eac600;stop-opacity:1;" /><stop
         id="stop4467"
         offset="0.2"
         style="stop-color:#eac600;stop-opacity:1;" /><stop
         id="stop4469"
         offset="0.34999999"
         style="stop-color:#eac600;stop-opacity:1;" /><stop
         id="stop4471"
         offset="1"
         style="stop-color:#a47c00;stop-opacity:1;" /></linearGradient><linearGradient
       gradientUnits="userSpaceOnUse"
       id="XMLID_65_"
       y2="115.876"
       x2="142.89799"
       y1="116.277"
       x1="144.299"
       gradientTransform="matrix(5.7728038,0,0,5.7728038,0.00527315,169.32165)"><stop
         id="stop4476"
         offset="0"
         style="stop-color:#9b6f00;stop-opacity:1;" /><stop
         id="stop4478"
         offset="1"
         style="stop-color:#dbb800;stop-opacity:1;" /></linearGradient><linearGradient
       gradientUnits="userSpaceOnUse"
       id="XMLID_66_"
       y2="145.32899"
       x2="136.25101"
       y1="143.748"
       x1="136.955"
       gradientTransform="matrix(5.7728038,0,0,5.7728038,0.00527315,169.32165)"><stop
         id="stop4485"
         offset="0"
         style="stop-color:#c19236;stop-opacity:1" /><stop
         id="stop4487"
         offset="1"
         style="stop-color:#d4a52e;stop-opacity:1" /></linearGradient><linearGradient
       gradientUnits="userSpaceOnUse"
       id="XMLID_67_"
       y2="145.625"
       x2="135.694"
       y1="145.625"
       x1="71.436996"
       gradientTransform="matrix(5.7728038,0,0,5.7728038,0.00527315,169.32165)"><stop
         id="stop4492"
         offset="0"
         style="stop-color:#d1b70d;stop-opacity:1;" /><stop
         id="stop4494"
         offset="0.40000001"
         style="stop-color:#e2bd00;stop-opacity:1;" /><stop
         id="stop4496"
         offset="1"
         style="stop-color:#aa8c00;stop-opacity:1;" /></linearGradient><linearGradient
       gradientUnits="userSpaceOnUse"
       id="XMLID_68_"
       y2="140.7738"
       x2="69.635582"
       y1="140.75443"
       x1="70.922501"
       gradientTransform="matrix(5.7728038,0,0,5.7728038,0.00527315,169.32165)"><stop
         id="stop4505"
         offset="0"
         style="stop-color:#d1b70d;stop-opacity:1;" /><stop
         id="stop4507"
         offset="0.1"
         style="stop-color:#d1b819;stop-opacity:1;" /><stop
         id="stop4509"
         offset="0.69999999"
         style="stop-color:#c3a313;stop-opacity:1;" /><stop
         id="stop4511"
         offset="1"
         style="stop-color:#ba9302;stop-opacity:1;" /></linearGradient><linearGradient
       gradientUnits="userSpaceOnUse"
       id="XMLID_69_"
       y2="140.255"
       x2="71.754997"
       y1="138.93401"
       x1="71.022003"
       gradientTransform="matrix(5.7728038,0,0,5.7728038,0.00527315,169.32165)"><stop
         id="stop4516"
         offset="0"
         style="stop-color:#d4a52e;stop-opacity:1" /><stop
         id="stop4518"
         offset="0.40000001"
         style="stop-color:#e7cd2a;stop-opacity:1;" /><stop
         id="stop4520"
         offset="0.80000001"
         style="stop-color:#d1b817;stop-opacity:1;" /><stop
         id="stop4522"
         offset="1"
         style="stop-color:#d1b817;stop-opacity:1;" /></linearGradient><defs
       id="defs4526"><path
         id="XMLID_35_"
         d="m 88.131,83.682 c 14.313,9.633 29.822,16.309 62.76,4.969 l -15.703,54.578 c -28.98,12.742 -48.541,5.09 -63.201,-3.77 L 88.131,83.682 Z"
         inkscape:connector-curvature="0" /></defs><clipPath
       id="XMLID_70_"><use
         id="use4530"
         xlink:href="#XMLID_35_"
         height="152.966"
         width="812.04401"
         y="0"
         x="0" /></clipPath><linearGradient
       gradientUnits="userSpaceOnUse"
       id="XMLID_71_"
       y2="106.551"
       x2="81.422997"
       y1="123.625"
       x1="140.966"><stop
         id="stop4533"
         offset="0"
         style="stop-color:#d3aa00;stop-opacity:1;" /><stop
         id="stop4535"
         offset="0.13383143"
         style="stop-color:#ffd00a;stop-opacity:1;" /><stop
         id="stop4537"
         offset="0.33284751"
         style="stop-color:#fbd421;stop-opacity:1;" /><stop
         id="stop4539"
         offset="0.56140411"
         style="stop-color:#deb70c;stop-opacity:1;" /><stop
         id="stop4541"
         offset="1"
         style="stop-color:#907700;stop-opacity:1;" /></linearGradient><linearGradient
       gradientUnits="userSpaceOnUse"
       id="XMLID_72_"
       y2="83.264999"
       x2="86.717003"
       y1="83.367996"
       x1="88.188004"
       gradientTransform="matrix(5.7728038,0,0,5.7728038,0.00527315,169.32165)"><stop
         id="stop4550"
         offset="0"
         style="stop-color:#e2b000;stop-opacity:1;" /><stop
         id="stop4552"
         offset="0.2"
         style="stop-color:#ffd025;stop-opacity:1;" /><stop
         id="stop4554"
         offset="0.52499998"
         style="stop-color:#dbae00;stop-opacity:1;" /><stop
         id="stop4556"
         offset="1"
         style="stop-color:#b37700;stop-opacity:1;" /></linearGradient></defs><sodipodi:namedview
     id="base"
     pagecolor="#ffffff"
     bordercolor="#666666"
     borderopacity="1.0"
     inkscape:pageopacity="0.0"
     inkscape:pageshadow="2"
     inkscape:zoom="0.59679912"
     inkscape:cx="499.3305"
     inkscape:cy="441.5221"
     inkscape:document-units="px"
     inkscape:current-layer="svg2"
     showgrid="true"
     units="px"
     inkscape:window-width="1366"
     inkscape:window-height="705"
     inkscape:window-x="-8"
     inkscape:window-y="-8"
     inkscape:window-maximized="1"
     inkscape:showpageshadow="2"
     inkscape:pagecheckerboard="0"
     inkscape:deskcolor="#d1d1d1"
     labelstyle="default" /><metadata
     id="metadata7"><rdf:RDF><cc:Work
         rdf:about=""><dc:format>image/svg+xml</dc:format><dc:type
           rdf:resource="http://purl.org/dc/dcmitype/StillImage" /></cc:Work></rdf:RDF></metadata><g
     id="g1"
     transform="translate(0,-169.31819)"><path
       id="path4139"
       style="fill:none"
       d="M 229.03549,937.63565"
       inkscape:connector-curvature="0" /><path
       id="path4141"
       style="fill:#70b900;fill-opacity:1"
       d="m 983.73145,291.16245 c -190.47943,78.76413 -282.0996,34.63105 -364.63338,-20.92064 0.1905,-0.72738 0.5311,-2.13594 -0.0231,-3.48678 82.53378,55.56324 175.9897,100.27938 366.45759,21.52679 -1.26425,1.16033 -1.26425,1.73761 -1.80112,2.88063 z"
       inkscape:connector-curvature="0" /><polygon
       id="polygon4143"
       style="fill:#538400;fill-rule:evenodd;fill-opacity:1"
       points="105.901,17.319 89.786,73.298 88.544,74.281 88.545,74.152 104.723,18.161 "
       transform="matrix(5.7728038,0,0,5.7728038,0.00527315,169.32165)" /><path
       id="path4156"
       style="fill:url(#XMLID_39_)"
       d="m 525.33042,596.06463 c -2.89795,-1.62216 -4.9877,-4.88957 -7.56237,-3.87933 l 93.25964,-322.74014 c 1.43166,-0.64078 5.03966,-1.87616 8.44561,0.80819 l -94.14288,325.81128 z"
       inkscape:connector-curvature="0" /><path
       id="path4158"
       style="fill:#538a00;fill-rule:evenodd;fill-opacity:1"
       d="m 612.22843,267.20531 -0.95828,2.30912 -6.80036,4.91266 c 0.57728,-2.20521 5.76125,-5.88249 7.36032,-6.99664 0.30019,-0.20782 0.39832,-0.22514 0.39832,-0.22514 z"
       inkscape:connector-curvature="0" /><path
       id="path4169"
       style="fill:#91bc00;fill-opacity:1"
       d="m 619.15003,270.02244 c -3.52719,-2.17635 -6.708,-1.11992 -8.1512,-0.49646 0.22514,-0.68697 0.83705,-2.09553 0.83705,-2.09553 3.06536,-1.93966 4.39888,-2.03203 7.26219,-0.66387 0.36946,1.06797 0.52533,2.09553 0.052,3.25586 z"
       inkscape:connector-curvature="0" /><path
       id="path4176"
       style="fill:#4f8800;fill-rule:evenodd;fill-opacity:1"
       d="m 990.79736,293.56393 c 0,0 -2.13016,-2.93835 -7.22755,-1.99739 0.45028,-1.20651 0.45028,-2.33798 1.96276,-3.29049 3.06535,-0.46183 4.55474,0.34636 5.20706,0.9756 0.36369,0.35791 0.47337,0.65233 0.47337,0.65233 0.40987,1.80111 -0.41564,3.65995 -0.41564,3.65995 z"
       inkscape:connector-curvature="0" /><path
       id="path4183"
       style="fill:#396800;fill-rule:evenodd;fill-opacity:1"
       d="m 990.74541,289.25165 7.53351,6.04412 c 0.45027,2.02049 -0.51956,4.06983 -0.51956,4.06983 l -7.5566,-6.06722 c 0,0 0.94674,-2.25139 0.54265,-4.04673 z"
       inkscape:connector-curvature="0" /><polygon
       id="polygon4185"
       style="fill:#334f00;fill-rule:evenodd;fill-opacity:1"
       points="172.887,22.461 156.481,78.712 155.243,77.619 171.555,21.402 "
       transform="matrix(5.7728038,0,0,5.7728038,0.00527315,169.32165)" /><path
       id="path4187"
       style="display:inline;fill:#334f00;fill-rule:evenodd;fill-opacity:1"
       d="m 905.18668,626.06011 c 0.20205,-1.85307 -1.77225,-3.38286 -1.77225,-3.38286 l 94.53544,-323.98707 c 0,0 1.50093,1.35084 1.90502,2.32644 z"
       inkscape:connector-curvature="0" /><path
       id="path4194"
       style="fill:#365900;fill-rule:evenodd;fill-opacity:1"
       d="m 999.8318,301.13785 c 0,0 -0.3406,-0.92942 -1.95121,-2.28603 0.73315,-3.04804 0.24823,-3.65996 0.24823,-3.65996 l 0.14432,0.0981 c 0,0.006 2.36686,2.15903 1.55866,5.84785 z"
       inkscape:connector-curvature="0" /><path
       id="path4196"
       style="display:inline;fill:#375f00;fill-opacity:1;fill-rule:evenodd"
       d="m 902.02896,629.08506 c -50.90459,23.11431 -99.08441,35.04092 -143.82364,38.94334 -77.25743,8.77466 -139.73071,-8.02997 -190.77384,-33.10126 -19.8469,-9.10948 -37.81764,-19.41971 -53.71594,-30.12826 l 0.86015,-0.74469 c 16.11766,10.84709 33.68431,21.44596 52.85001,30.87295 51.86287,23.81282 116.58178,39.53216 190.77385,33.10126 42.25693,-4.77988 88.93582,-17.24914 140.59664,-40.1614 1.45474,1.17188 3.23277,1.21806 3.23277,1.21806 z"
       inkscape:connector-curvature="0" /><path
       id="path4203"
       style="fill:#3a5700;fill-opacity:1"
       d="m 891.74759,623.05826 c 0,0 -3.64263,-3.26741 -2.97876,-8.05307 4.89534,-1.25269 8.02997,1.8473 8.02997,1.8473 0,0 -0.90056,4.40465 -5.05121,6.20577 z"
       inkscape:connector-curvature="0" /><path
       id="path4210"
       style="fill:#3a5700;fill-rule:evenodd;fill-opacity:1"
       d="m 896.7988,616.85826 6.84654,5.97486 c 0,0 -1.05065,3.74655 -5.20707,5.57075 l -6.95622,-5.95753 c 4.16796,-1.82421 5.31675,-5.58808 5.31675,-5.58808 z"
       inkscape:connector-curvature="0" /><path
       id="path4219"
       style="fill:url(#XMLID_46_)"
       d="m 889.9003,614.90706 c -0.66388,4.79142 2.86331,8.28974 2.86331,8.28974 -190.51407,78.76991 -288.66328,32.38543 -371.12201,-23.47222 1.44897,-1.06219 1.67411,-1.05065 2.61508,-4.41042 82.44718,55.8692 207.07047,95.01458 365.64362,19.5929 z"
       inkscape:connector-curvature="0" /><path
       id="path4221"
       style="fill:#375f00;fill-rule:evenodd;fill-opacity:1"
       d="m 514.6161,604.38901 7.08323,-4.7337 c 82.49336,53.10979 179.93252,99.04399 370.24454,22.57166 l 6.88695,5.98063 C 716.10427,708.81903 599.20499,663.92393 514.6161,604.38901 Z"
       inkscape:connector-curvature="0" /><path
       id="path4223"
       style="fill:#385600;fill-rule:evenodd;fill-opacity:1"
       d="m 905.18668,626.06011 c -0.94674,1.73762 -2.60353,2.73054 -3.15772,3.01918 -0.11546,0.0693 -0.1905,0.0693 -0.1905,0.0693 0,0 -1.29889,0.17896 -3.03073,-0.94674 3.72346,-2.03202 4.80298,-6.0903 4.80298,-6.0903 0,0 2.1648,1.80688 1.57597,3.94859 z"
       inkscape:connector-curvature="0" /><path
       id="path4225"
       style="fill:#588500;fill-rule:evenodd;fill-opacity:1"
       d="m 514.87587,604.29664 -0.8486,0.69851 c 0,0 -4.64134,-2.50539 -2.86331,-7.60855 0.41564,5.01656 3.71191,6.91004 3.71191,6.91004 z"
       inkscape:connector-curvature="0" /><path
       id="path4236"
       style="fill:#568400;fill-opacity:1"
       d="m 511.15819,597.3866 6.835,-5.40335 c -0.39833,5.20707 4.10446,7.37187 4.10446,7.37187 l -6.95046,5.34562 c 0,0 -4.38156,-2.09553 -3.989,-7.31414 z"
       inkscape:connector-curvature="0" /><path
       id="path4247"
       style="fill:#548100;fill-opacity:1"
       d="m 517.84309,591.98325 c 2.33799,-0.71005 4.45083,1.71453 7.31414,3.93706 -0.92942,3.37131 -1.74915,2.79403 -3.19813,3.86777 -1.6972,-1.01601 -4.54897,-3.52141 -4.11601,-7.80483 z"
       inkscape:connector-curvature="0" /><path
       id="path4254"
       style="fill:#334f00;fill-opacity:1"
       d="m 888.99974,615.6402 94.28143,-324.36807 c 5.09739,-0.94097 7.53351,1.94544 7.53351,1.94544 l -94.01011,323.64069 c -0.006,0 -3.76964,-2.8864 -7.80483,-1.21806 z"
       inkscape:connector-curvature="0" /><path
       id="path4272"
       style="fill:url(#XMLID_51_)"
       d="M 983.73145,291.07008 C 793.25202,369.82267 701.66648,325.55104 619.12116,269.99935 l -93.9697,325.94405 c 82.4645,55.86919 182.02228,101.80339 364.77193,19.99122 l 93.80806,-324.86454 z"
       inkscape:connector-curvature="0" /><path
       id="path4274"
       style="fill:#0029cb;fill-rule:evenodd;fill-opacity:1"
       d="m 7.8562863,933.32914 c 0.6234628,0.0924 1.7722508,-0.45028 1.7722508,-0.45028 1.3219719,0.90056 2.3726219,1.53557 2.3726219,1.53557 0,0 -2.0666633,0.49069 -4.1448727,-1.08529 z"
       inkscape:connector-curvature="0" /><path
       id="path4276"
       style="fill:#1734e8;fill-opacity:1"
       d="m 361.20961,950.01254 c 0,0 1.26424,1.17188 2.71899,0.76779 l -5.70931,3.38286 c -1.8242,0.81397 -3.70036,-0.47337 -3.70036,-0.47337 l 6.69068,-3.67728 z"
       inkscape:connector-curvature="0" /><path
       id="path4278"
       style="fill:#0021bf;fill-opacity:1"
       d="m 9.7035835,932.91927 c 0,0 -1.1141511,0.56574 -1.7433867,0.47337 l -6.2634921,-4.77988 -0.1443201,-0.13277 c 0.9063302,0.3175 1.9512077,0.15586 2.3726223,0.0693 l 5.7785766,4.37001 z"
       inkscape:connector-curvature="0" /><path
       id="path4280"
       style="fill:#1836f2;fill-opacity:1"
       d="m 364.41351,945.34812 c 0.65233,0.47337 1.33929,0.99292 1.98585,2.29758 -0.36369,1.71452 -1.79534,2.59198 -2.60354,3.22699 -1.1661,0.27132 -2.79981,-0.83705 -2.79981,-0.83705 0.91211,-0.76779 2.47076,-1.87039 3.4175,-4.68752 z"
       inkscape:connector-curvature="0" /><rect
       id="rect4282"
       style="display:inline;fill:#2e499e;fill-rule:evenodd"
       y="599.99011"
       x="92.855049"
       height="0.10391046"
       width="1.8703884" /><polygon
       id="polygon4284"
       style="fill:#4161e9;fill-rule:evenodd;fill-opacity:1"
       points="0.207,130.799 0.023,130.752 16.086,74.56 16.267,74.611 "
       transform="matrix(5.7728038,0,0,5.7728038,0.00527315,169.32165)" /><path
       id="path4286"
       style="fill:#4763e3;fill-rule:evenodd;fill-opacity:1"
       d="m 1.6967047,928.61276 c -1.20074323,-1.0391 -2.03202697,-2.81713 -1.56442987,-4.48547 L 1.246426,923.7001 c -0.46759714,2.41304 1.3046536,4.15065 2.5977617,4.89534 0.011546,-0.006 -0.9351942,0.4676 -2.147483,0.0173 z"
       inkscape:connector-curvature="0" /><path
       id="path4295"
       style="fill:url(#XMLID_52_)"
       d="M 361.15188,950.23768 C 278.41605,894.55899 192.6726,852.03075 3.9654166,928.70513 2.6665357,927.93734 0.6922368,926.09005 1.1540611,923.65392 192.76496,842.08998 281.78737,889.7387 364.5232,945.43471 c -0.84283,2.95568 -2.45922,4.05828 -3.37132,4.80297 z"
       inkscape:connector-curvature="0" /><path
       id="path4297"
       style="display:inline;fill:#0821b8;fill-rule:evenodd;fill-opacity:1"
       d="M 9.3283513,932.67104 C 190.96385,861.65978 272.3777,900.3318 355.07312,953.57436 305.54246,921.69117 254.5686,896.16383 184.23276,895.73087 137.16132,895.45955 81.528808,907.40925 11.908795,934.40288 c 0,0.006 -1.437429,-0.53687 -2.5804437,-1.73184 z"
       inkscape:connector-curvature="0" /><path
       id="path4299"
       style="fill:#011bb3;fill-rule:evenodd;fill-opacity:1"
       d="m 361.25002,950.21459 -6.69068,3.49255 C 271.86392,900.46457 188.16981,863.66295 9.7093563,932.9135 L 3.8095509,928.60699 C 192.51673,851.92106 278.51997,894.51858 361.25002,950.21459 Z"
       inkscape:connector-curvature="0" /><path
       id="path4301"
       style="fill:#1e1fc4;fill-rule:evenodd;fill-opacity:1"
       d="m 364.35578,945.52708 95.40713,-326.5502 c 1.02179,0.71006 1.56443,1.26425 2.09553,1.87039 l -95.49372,326.95429 c -0.53687,-1.37393 -2.00894,-2.27448 -2.00894,-2.27448 z"
       inkscape:connector-curvature="0" /><path
       id="path4303"
       style="fill:#6381ee;fill-rule:evenodd;fill-opacity:1"
       d="m 459.7225,619.13275 c -82.655,-56.01929 -175.88001,-96.56746 -366.013076,-18.96366 0.47337,-1.62216 0.860148,-2.38994 0.860148,-2.38994 C 285.53969,518.81874 377.76024,560.74084 460.40947,616.7659 l -0.68697,2.36685 z"
       inkscape:connector-curvature="0" /><g
       id="g4311"
       clip-path="url(#XMLID_53_)"
       transform="matrix(5.7728038,0,0,5.7728038,0.00527315,169.32165)"><linearGradient
         gradientUnits="userSpaceOnUse"
         id="XMLID_54_"
         y2="93.901001"
         x2="10.682"
         y1="110.956"
         x1="70.161003"><stop
           id="stop4314"
           offset="0"
           style="stop-color:#1e1fc4;stop-opacity:1;" /><stop
           id="stop4316"
           offset="0.40000001"
           style="stop-color:#6c8cff;stop-opacity:1;" /><stop
           id="stop4318"
           offset="0.72500002"
           style="stop-color:#9bb4ff;stop-opacity:1;" /><stop
           id="stop4320"
           offset="1"
           style="stop-color:#4464e4;stop-opacity:1;" /></linearGradient><path
         id="path4322"
         style="fill:url(#XMLID_54_)"
         d="M 63.141,134.596 C 48.81,124.951 33.231,117.018 0.157,130.694 L 16.352,74.127 c 33.081,-13.678 48.973,-5.938 63.29,3.766 l -16.501,56.703 z"
         inkscape:connector-curvature="0" /><path
         id="path4324"
         style="fill:none"
         d="M 63.141,134.596 C 48.81,124.951 33.231,117.018 0.157,130.694 L 16.352,74.127 c 33.081,-13.678 48.973,-5.938 63.29,3.766 l -16.501,56.703 z"
         inkscape:connector-curvature="0" /></g><path
       id="path4326"
       style="fill:#161bda;fill-rule:evenodd;fill-opacity:1"
       d="m 460.3806,616.74281 0.15587,0.0924 c 1.17765,0.83706 1.65679,2.45922 1.32197,4.0121 l -0.0693,0.20205 c -0.52533,-0.60037 -1.07374,-1.17188 -2.08976,-1.88193 l 0.68119,-2.42458 z"
       inkscape:connector-curvature="0" /><path
       id="path4333"
       style="fill:#345ae3;fill-rule:evenodd;fill-opacity:1"
       d="m 93.899927,600.09404 -1.044878,-0.30596 c 0.398324,-1.37392 1.339291,-1.84729 1.714523,-2.00893 l 0.155866,-0.0462 c 0.0058,0 -0.346368,0.7216 -0.825511,2.36107 z"
       inkscape:connector-curvature="0" /><path
       id="path4335"
       style="fill:#983308;fill-rule:evenodd;fill-opacity:1"
       d="M 472.38226,564.74139 C 383.49263,503.05321 274.53673,464.31192 112.73081,544.72131 l 6.61564,4.6702 c 176.80366,-72.25819 269.04152,-33.14744 346.60491,17.94187 l 6.4309,-2.59199 z"
       inkscape:connector-curvature="0" /><path
       id="path4337"
       style="fill:#9b1e00;fill-rule:evenodd;fill-opacity:1"
       d="m 475.49958,559.95574 93.92351,-324.28148 c 1.01602,0.69273 1.51248,1.36238 2.04935,1.96275 l -93.96393,324.55858 c -0.53687,-1.36239 -2.00893,-2.23985 -2.00893,-2.23985 z"
       inkscape:connector-curvature="0" /><path
       id="path4339"
       style="display:inline;fill:#c0581d;fill-rule:evenodd;fill-opacity:1"
       d="m 119.40417,549.2876 c 30.08786,-12.34226 57.95318,-21.5037 83.80957,-27.79028 6.26926,-1.51825 11.84002,-2.89218 18.45565,-4.16797 6.09031,-1.21228 12.10557,-2.39571 17.98806,-3.26163 9.21917,-1.40856 18.16124,-2.5689 26.86663,-3.23854 7.44692,-0.58883 14.69178,-1.02179 21.78656,-1.08529 6.85809,-0.0808 13.56032,0.0115 20.10668,0.38678 5.83053,0.33482 11.53406,0.75624 17.151,1.42011 4.74524,0.55419 9.38658,1.13724 13.97595,1.92811 9.69254,1.66257 19.05603,3.70614 28.10779,6.27504 36.55339,10.33909 69.01964,27.96346 98.87081,47.86809 -0.19628,0.0924 -0.91211,-0.20782 -1.22384,-0.37523 -0.28864,-0.13855 -0.42141,-0.15009 -0.67542,-0.32328 -40.35767,-25.58506 -83.7172,-47.83345 -137.21954,-54.39713 -54.76082,-6.73109 -118.57339,2.6959 -204.54776,36.81894 0,0 -2.00316,0.84861 -2.76517,0.98715 -0.68697,0.10969 -0.55996,-0.41564 -0.68697,-1.04487 z"
       inkscape:connector-curvature="0" /><path
       id="path4341"
       style="fill:#d83804;fill-opacity:1"
       d="m 472.23217,564.68366 c 0,0 1.27579,0.89479 2.71899,0.56574 l -5.92867,2.61508 c -1.59907,0.4676 -3.49832,-0.51955 -3.49832,-0.51955 l 6.708,-2.66127 z"
       inkscape:connector-curvature="0" /><path
       id="path4343"
       style="fill:#db5200;fill-opacity:1"
       d="m 119.48499,549.34532 c 0,0 0.36369,0.60615 0.60615,0.9987 -0.58306,0.0808 -0.65233,0.23091 -2.08976,-0.40987 -0.1905,-0.0751 -0.47914,-0.31173 -0.71582,-0.41564 l -6.1365,-4.82607 -0.55418,-0.45605 c 0.83705,-0.0577 1.47783,0.34637 1.89925,0.26555 l 6.99086,4.84338 z"
       inkscape:connector-curvature="0" /><path
       id="path4345"
       style="fill:#dc4312;fill-opacity:1"
       d="m 475.56308,559.96728 c 0.6581,0.43874 1.4432,0.69851 1.99161,2.06089 -0.36368,1.72607 -1.82997,2.59199 -2.64971,3.227 -1.45475,0.40987 -2.89218,-0.71005 -2.89218,-0.71005 0.91788,-0.73315 2.60354,-1.77225 3.55028,-4.57784 z"
       inkscape:connector-curvature="0" /><path
       id="path4347"
       style="fill:#aa2f0d;fill-rule:evenodd;fill-opacity:1"
       d="m 570.05233,233.56718 0.11546,0.0693 c 1.16033,0.83128 1.64525,2.45921 1.31042,4.00055 l -0.0577,0.20782 c -0.54264,-0.60614 -0.88901,-1.20651 -1.9512,-2.00893 l 0.58305,-2.26872 z"
       inkscape:connector-curvature="0" /><path
       id="path4349"
       style="fill:#df5300;fill-rule:evenodd;fill-opacity:1"
       d="m 110.72188,544.40958 c -0.88901,-0.69851 -1.7838,-3.42905 -1.32197,-5.09162 l 1.24692,-0.43296 c -0.46182,2.40726 1.02756,5.14934 2.32067,5.89404 0.006,0 -0.90633,0.51378 -2.24562,-0.36946 z"
       inkscape:connector-curvature="0" /><rect
       id="rect4357"
       style="fill:#ff6301;fill-rule:evenodd;fill-opacity:1"
       clip-path="url(#XMLID_56_)"
       y="7.3720002"
       x="35.25"
       height="0.024"
       width="0.32499999"
       transform="matrix(5.7728038,0,0,5.7728038,0.00527315,169.32165)" /><rect
       id="rect4359"
       style="fill:#ff6301;fill-rule:evenodd;fill-opacity:1"
       clip-path="url(#XMLID_56_)"
       y="7.3959999"
       x="35.25"
       height="0.027000001"
       width="0.32499999"
       transform="matrix(5.7728038,0,0,5.7728038,0.00527315,169.32165)" /><rect
       id="rect4361"
       style="fill:#ff6301;fill-rule:evenodd;fill-opacity:1"
       clip-path="url(#XMLID_56_)"
       y="7.4229999"
       x="35.25"
       height="0.024"
       width="0.32499999"
       transform="matrix(5.7728038,0,0,5.7728038,0.00527315,169.32165)" /><rect
       id="rect4363"
       style="fill:#ff6301;fill-rule:evenodd;fill-opacity:1"
       clip-path="url(#XMLID_56_)"
       y="7.448"
       x="35.25"
       height="0.027000001"
       width="0.32499999"
       transform="matrix(5.7728038,0,0,5.7728038,0.00527315,169.32165)" /><rect
       id="rect4365"
       style="fill:#ff6301;fill-rule:evenodd;fill-opacity:1"
       clip-path="url(#XMLID_56_)"
       y="7.4749999"
       x="35.25"
       height="0.025"
       width="0.32499999"
       transform="matrix(5.7728038,0,0,5.7728038,0.00527315,169.32165)" /><rect
       id="rect4367"
       style="fill:#ff6301;fill-rule:evenodd;fill-opacity:1"
       clip-path="url(#XMLID_56_)"
       y="7.5"
       x="35.25"
       height="0.024"
       width="0.32499999"
       transform="matrix(5.7728038,0,0,5.7728038,0.00527315,169.32165)" /><rect
       id="rect4369"
       style="fill:#ff6301;fill-rule:evenodd;fill-opacity:1"
       clip-path="url(#XMLID_56_)"
       y="7.5250001"
       x="35.25"
       height="0.025"
       width="0.32499999"
       transform="matrix(5.7728038,0,0,5.7728038,0.00527315,169.32165)" /><rect
       id="rect4371"
       style="fill:#ff6301;fill-rule:evenodd;fill-opacity:1"
       clip-path="url(#XMLID_56_)"
       y="7.5500002"
       x="35.25"
       height="0.024"
       width="0.32499999"
       transform="matrix(5.7728038,0,0,5.7728038,0.00527315,169.32165)" /><rect
       id="rect4373"
       style="fill:#ff6301;fill-rule:evenodd;fill-opacity:1"
       clip-path="url(#XMLID_56_)"
       y="7.5749998"
       x="35.25"
       height="0.025"
       width="0.32499999"
       transform="matrix(5.7728038,0,0,5.7728038,0.00527315,169.32165)" /><rect
       id="rect4375"
       style="fill:#ff6301;fill-rule:evenodd;fill-opacity:1"
       clip-path="url(#XMLID_56_)"
       y="7.5999999"
       x="35.25"
       height="0.025"
       width="0.32499999"
       transform="matrix(5.7728038,0,0,5.7728038,0.00527315,169.32165)" /><rect
       id="rect4377"
       style="fill:#ff6301;fill-rule:evenodd;fill-opacity:1"
       clip-path="url(#XMLID_56_)"
       y="7.625"
       x="35.25"
       height="0.026000001"
       width="0.32499999"
       transform="matrix(5.7728038,0,0,5.7728038,0.00527315,169.32165)" /><rect
       id="rect4379"
       style="fill:#ff6301;fill-rule:evenodd;fill-opacity:1"
       clip-path="url(#XMLID_56_)"
       y="7.652"
       x="35.25"
       height="0.025"
       width="0.32499999"
       transform="matrix(5.7728038,0,0,5.7728038,0.00527315,169.32165)" /><rect
       id="rect4381"
       style="fill:#ff6301;fill-rule:evenodd;fill-opacity:1"
       clip-path="url(#XMLID_56_)"
       y="7.677"
       x="35.25"
       height="0.024"
       width="0.32499999"
       transform="matrix(5.7728038,0,0,5.7728038,0.00527315,169.32165)" /><rect
       id="rect4383"
       style="fill:#ff6301;fill-rule:evenodd;fill-opacity:1"
       clip-path="url(#XMLID_56_)"
       y="7.7020001"
       x="35.25"
       height="0.027000001"
       width="0.32499999"
       transform="matrix(5.7728038,0,0,5.7728038,0.00527315,169.32165)" /><rect
       id="rect4385"
       style="fill:#ff6301;fill-rule:evenodd;fill-opacity:1"
       clip-path="url(#XMLID_56_)"
       y="7.7290001"
       x="35.25"
       height="0.024"
       width="0.32499999"
       transform="matrix(5.7728038,0,0,5.7728038,0.00527315,169.32165)" /><rect
       id="rect4387"
       style="display:inline;fill:#ff6301;fill-rule:evenodd;fill-opacity:1"
       clip-path="url(#XMLID_56_)"
       y="7.7529998"
       x="35.25"
       height="0.027000001"
       width="0.32499999"
       transform="matrix(5.7728038,0,0,5.7728038,0.00527315,169.32165)" /><path
       id="path4402"
       style="fill:url(#XMLID_57_)"
       d="m 472.20908,564.70676 c -50.88149,-33.2629 -98.5129,-60.79917 -173.93458,-62.96975 -55.15337,1.09106 -97.43338,8.11656 -185.38205,43.0478 -1.29888,-0.73892 -2.94413,-2.58044 -2.48808,-4.99925 76.14906,-32.42584 136.60186,-46.41334 186.7733,-45.92265 75.9701,0.75623 128.63538,32.54129 178.43159,66.04087 -0.84283,2.93259 -2.48231,4.05828 -3.40018,4.80298 z"
       inkscape:connector-curvature="0" /><path
       id="path4404"
       style="fill:#e63802;fill-rule:evenodd;fill-opacity:0.96862745"
       d="m 203.52547,213.88192 0.87169,0.2771 -93.77919,325.51686 c -0.2136,-0.0924 -1.21229,-0.35792 -1.21229,-0.35792 l 94.11979,-325.43604 z"
       inkscape:connector-curvature="0" /><path
       id="path4406"
       style="fill:#e95801;fill-rule:evenodd;fill-opacity:1"
       d="M 569.44041,236.04949 C 486.84314,180.08216 394.30509,136.86695 204.3048,214.41302 c 0.48492,-1.62793 0.9121,-2.49385 0.9121,-2.49385 190.84312,-78.89691 282.33052,-34.27314 364.94511,21.71729 l -0.7216,2.41303 z"
       inkscape:connector-curvature="0" /><path
       id="path4417"
       style="fill:url(#XMLID_58_)"
       d="m 475.63812,560.02501 c -49.80775,-33.53999 -103.37359,-64.8459 -179.4476,-65.42318 -50.19453,-0.38678 -109.94305,13.87204 -185.79192,45.23569 l 93.99856,-325.71314 c 190.84313,-78.90845 282.50948,-34.25004 365.10098,21.72883 l -93.86002,324.1718 z"
       inkscape:connector-curvature="0" /><path
       id="path4424"
       style="fill:#877000;fill-rule:evenodd;fill-opacity:1"
       d="m 796.61179,1007.4058 c -0.92365,1.7145 -2.59199,2.7305 -3.14618,3.0191 -0.12123,0.069 -0.20205,0.069 -0.20205,0.069 0,0 -1.58752,0.2021 -3.03072,-0.9467 3.72346,-2.0321 4.82606,-6.1134 4.82606,-6.1134 0,0 2.14749,1.8299 1.55289,3.9717 z"
       inkscape:connector-curvature="0" /><path
       id="path4426"
       style="fill:#786300;fill-rule:evenodd;fill-opacity:1"
       d="m 796.61179,1007.4058 c 0.22514,-1.8473 -1.76071,-3.406 -1.76071,-3.406 l 90.44829,-315.27013 c 0,0 1.51248,1.32775 1.92812,2.32067 l -90.6157,316.35546 z"
       inkscape:connector-curvature="0" /><path
       id="path4433"
       style="fill:#d6ab05;fill-rule:evenodd;fill-opacity:0.84705883"
       d="m 887.16976,691.18311 c 0,0 -0.29441,-0.90055 -1.91657,-2.25716 0.74469,-3.06536 0.22514,-3.72346 0.22514,-3.72346 l 0.14432,0.0924 c 0.006,0.006 2.38417,2.19367 1.54711,5.88826 z"
       inkscape:connector-curvature="0" /><path
       id="path4440"
       style="fill:#a98700;fill-rule:evenodd;fill-opacity:1"
       d="m 878.15264,683.5861 c 0,0 -2.5054,-3.04226 -7.59701,-2.09552 0.27132,-1.14879 0.69851,-2.54581 2.32067,-3.20391 3.0769,-0.47337 4.55474,0.3406 5.20707,0.96983 0.36946,0.38101 0.47337,0.65233 0.47337,0.65233 0.40409,1.80689 -0.4041,3.67727 -0.4041,3.67727 z"
       inkscape:connector-curvature="0" /><path
       id="path4447"
       style="fill:#826b00;fill-rule:evenodd;fill-opacity:1"
       d="m 878.08337,679.2565 7.54505,6.04413 c 0.43874,2.04934 -0.36946,4.08137 -0.36946,4.08137 l -7.51041,-6.02104 c -0.006,0 0.73891,-2.30334 0.33482,-4.10446 z"
       inkscape:connector-curvature="0" /><polygon
       id="polygon4449"
       style="fill:#786300;fill-rule:evenodd;fill-opacity:1"
       points="152.042,88.963 153.372,90.025 137.723,144.619 137.661,144.768 136.288,143.584 "
       transform="matrix(5.7728038,0,0,5.7728038,0.00527315,169.32165)" /><path
       id="path4456"
       style="fill:#8d7500;fill-opacity:1"
       d="m 782.31255,1003.8613 c 0,0 -3.63109,-3.2501 -2.97876,-8.0531 4.89533,-1.24116 8.05306,1.84729 8.05306,1.84729 0,0 -0.90056,4.38161 -5.0743,6.20581 z"
       inkscape:connector-curvature="0" /><path
       id="path4458"
       style="display:inline;fill:#d89b00;fill-opacity:0.98039216"
       d="m 870.86736,681.80231 c -191.51854,65.23845 -279.64039,26.24894 -362.26653,-29.36048 0.19628,-0.74469 0.70429,-1.96276 0.14432,-3.33668 82.62614,55.60942 174.00963,93.58292 364.12538,29.18152 -1.43743,0.99292 -1.62216,2.34376 -2.00317,3.51564 z"
       inkscape:connector-curvature="0" /><polygon
       id="polygon4460"
       style="display:inline;fill:#a47c00;fill-rule:evenodd;fill-opacity:1"
       points="69.513,140.244 69.516,140.111 85.601,84.389 86.778,83.533 70.757,139.26 "
       transform="matrix(5.7728038,0,0,5.7728038,0.00527315,169.32165)" /><path
       id="path4473"
       style="display:inline;fill:url(#XMLID_64_)"
       d="m 416.33988,974.7721 c -2.6959,-1.59907 -5.8363,-2.81713 -8.41097,-1.7838 l 92.72855,-321.31426 c 1.4432,-0.60614 4.87224,-1.55865 8.38788,0.90056 z"
       inkscape:connector-curvature="0" /><path
       id="path4480"
       style="display:inline;fill:#786300;fill-opacity:1"
       d="m 779.5647,996.4663 90.96784,-315.09118 c 0.16741,-0.0462 0.39255,-0.27132 0.54264,-0.29441 4.83761,-0.49646 7.08323,2.07243 7.08323,2.07243 L 787.4388,997.74786 c -0.006,0.006 -3.83891,-2.97299 -7.8741,-1.28156 z"
       inkscape:connector-curvature="0" /><path
       id="path4482"
       style="display:inline;fill:#9d7102;fill-rule:evenodd;fill-opacity:1"
       d="m 793.46561,1010.4249 c -187.01575,79.9418 -306.97462,30.7806 -389.60076,-24.85188 l 0.86592,-0.7216 c 82.62615,55.60938 209.77792,101.92458 385.4963,24.35548 1.45474,1.1488 3.23854,1.218 3.23854,1.218 z"
       inkscape:connector-curvature="0" /><path
       id="path4489"
       style="fill:#867000;fill-rule:evenodd;fill-opacity:1"
       d="m 787.3753,997.70745 7.70092,6.47135 c 0,0 -1.0391,3.7407 -5.20707,5.5707 l -7.82215,-6.4944 c 4.16797,-1.8242 5.3283,-5.54765 5.3283,-5.54765 z"
       inkscape:connector-curvature="0" /><path
       id="path4498"
       style="display:inline;fill:url(#XMLID_67_)"
       d="m 780.46526,995.72161 c -0.65233,4.80299 2.87485,8.27819 2.87485,8.27819 -190.71612,78.8796 -288.39196,31.5946 -370.94305,-24.35545 1.45474,-1.0622 2.1648,-1.98585 3.09422,-5.32253 0.12123,0.0693 1.27579,-0.11545 1.39125,-0.0462 85.21235,52.47478 194.27794,93.94658 363.58273,21.44597 z"
       inkscape:connector-curvature="0" /><path
       id="path4500"
       style="fill:#826800;fill-rule:evenodd;fill-opacity:1"
       d="m 404.76541,985.16892 7.63165,-5.52457 c 75.72187,47.22155 181.84909,98.95165 370.11754,23.40875 l 7.78174,6.4944 c -174.991,77.5056 -302.90479,31.2539 -385.53093,-24.37858 z"
       inkscape:connector-curvature="0" /><path
       id="path4502"
       style="fill:#b89101;fill-rule:evenodd;fill-opacity:1"
       d="m 405.41197,985.41715 -0.86592,0.60614 c 0,0 -5.02234,-2.77094 -3.23855,-7.86833 0.40987,5.02812 4.10447,7.26219 4.10447,7.26219 z"
       inkscape:connector-curvature="0" /><path
       id="path4513"
       style="fill:url(#XMLID_68_)"
       d="m 401.3075,978.15496 7.16982,-5.86517 c -0.39255,5.25326 4.69329,7.19292 4.69329,7.19292 l -7.8741,6.02103 c 0.006,0.006 -4.38733,-2.11284 -3.98901,-7.34878 z"
       inkscape:connector-curvature="0" /><path
       id="path4524"
       style="fill:url(#XMLID_69_)"
       d="m 407.94623,972.49762 c 2.56889,-1.03911 4.97615,0.17895 7.6836,1.7607 -0.94097,3.35977 -1.5067,4.53165 -2.96145,5.59385 -1.6972,-1.01602 -5.15511,-3.09423 -4.72215,-7.35455 z"
       inkscape:connector-curvature="0" /><path
       id="path4543"
       style="display:inline;fill:url(#XMLID_71_)"
       clip-path="url(#XMLID_70_)"
       d="m 88.226,83.334 c 14.313,9.637 30.212,17.313 63.243,3.66 l -16.281,56.234 c -33.037,13.664 -48.903,5.926 -63.201,-3.77 z"
       inkscape:connector-curvature="0"
       transform="matrix(5.7728038,0,0,5.7728038,0.00527315,169.32165)" /><path
       id="path4545"
       style="display:inline;fill:none"
       clip-path="url(#XMLID_70_)"
       d="m 88.226,83.334 c 14.313,9.637 30.212,17.313 63.243,3.66 l -16.281,56.234 c -33.037,13.664 -48.903,5.926 -63.201,-3.77 z"
       inkscape:connector-curvature="0"
       transform="matrix(5.7728038,0,0,5.7728038,0.00527315,169.32165)" /><path
       id="path4547"
       style="fill:#f4cf00;fill-rule:evenodd;fill-opacity:1"
       d="m 501.85243,649.51502 -0.98138,2.29757 -6.80036,4.91843 c 0.43873,-2.04934 5.68044,-5.84208 7.29682,-6.96777 0.21359,-0.16164 0.48492,-0.24823 0.48492,-0.24823 z"
       inkscape:connector-curvature="0" /><path
       id="path4558"
       style="fill:url(#XMLID_72_)"
       d="m 508.77979,652.42451 c -3.79273,-2.21099 -6.88695,-0.87747 -8.33016,-0.24823 0.22514,-0.69851 1.00447,-2.45922 1.00447,-2.45922 3.07113,-1.96275 4.46815,-1.96275 7.33724,-0.58882 0.55419,1.35661 0.1905,2.43612 -0.0115,3.29627 z"
       inkscape:connector-curvature="0" /></g></svg>
