<?xml version="1.0" encoding="utf-8"?>
<!-- Generator: Adobe Illustrator 24.0.0, SVG Export Plug-In . SVG Version: 6.00 Build 0)  -->
<svg version="1.1" id="Layer_1" xmlns="http://www.w3.org/2000/svg" xmlns:xlink="http://www.w3.org/1999/xlink" x="0px" y="0px"
	 viewBox="0 0 800 600" style="enable-background:new 0 0 800 600;" xml:space="preserve">
<style type="text/css">
	.st0{fill:url(#SVGID_1_);}
	.st1{fill:url(#SVGID_2_);}
</style>
<g>
	<g>
		<linearGradient id="SVGID_1_" gradientUnits="userSpaceOnUse" x1="402.2095" y1="544.8503" x2="402.2095" y2="56.385">
			<stop  offset="0" style="stop-color:#009EE2"/>
			<stop  offset="1" style="stop-color:#312A6F"/>
		</linearGradient>
		<path class="st0" d="M646.4,300.6c0,134.9-109.3,244.2-244.2,244.2C267.3,544.9,158,435.5,158,300.6
			c0-134.9,109.4-244.2,244.2-244.2C537.1,56.4,646.4,165.7,646.4,300.6z"/>
		<linearGradient id="SVGID_2_" gradientUnits="userSpaceOnUse" x1="402.2095" y1="531.4825" x2="402.2095" y2="69.7461">
			<stop  offset="0" style="stop-color:#81CFF4"/>
			<stop  offset="6.836152e-02" style="stop-color:#7DC9F0"/>
			<stop  offset="0.1578" style="stop-color:#70B9E5"/>
			<stop  offset="0.259" style="stop-color:#5C9ED2"/>
			<stop  offset="0.3688" style="stop-color:#3F78B9"/>
			<stop  offset="0.4844" style="stop-color:#1B4898"/>
			<stop  offset="0.5" style="stop-color:#164193"/>
			<stop  offset="0.5533" style="stop-color:#1C4696"/>
			<stop  offset="0.6231" style="stop-color:#2C549E"/>
			<stop  offset="0.7021" style="stop-color:#476BAC"/>
			<stop  offset="0.7878" style="stop-color:#6D8BBF"/>
			<stop  offset="0.879" style="stop-color:#9EB5D7"/>
			<stop  offset="0.9733" style="stop-color:#D8E7F4"/>
			<stop  offset="1" style="stop-color:#EAF6FD"/>
		</linearGradient>
		<path class="st1" d="M633.1,300.6c0,127.5-103.4,230.9-230.9,230.9c-127.5,0-230.9-103.4-230.9-230.9
			c0-127.5,103.4-230.9,230.9-230.9C529.7,69.7,633.1,173.1,633.1,300.6z"/>
	</g>
	
		<image style="overflow:visible;" width="144" height="124" xlink:href="7EFCE1BCF4D0C50C.png"  transform="matrix(1 0 0 1 246 286)">
	</image>
	
		<image style="overflow:visible;" width="146" height="128" xlink:href="7EFCE1BCF4D0C50D.png"  transform="matrix(1 0 0 1 278 161)">
	</image>
	
		<image style="overflow:visible;" width="152" height="125" xlink:href="7EFCE1BCF4D0C50B.png"  transform="matrix(1 0 0 1 407 192)">
	</image>
	
		<image style="overflow:visible;" width="151" height="128" xlink:href="7EFCE1BCF4D0C514.png"  transform="matrix(1 0 0 1 373 310)">
	</image>
</g>
</svg>
